<svg xmlns="http://www.w3.org/2000/svg" viewBox="0 0 1024 708.75" preserveAspectRatio="xMidYMid" width="1024" height="708.75" style="shape-rendering: auto; display: block; background: rgb(255, 255, 255);"><g data-idx="1"><g data-idx="2" transform="matrix(1,0,0,1,0,0.3571317791938782)"><path fill="#00ffff" d="M-170.67 -162.13A85.33 85.33 0 0 1 0 -162.13A85.33 85.33 0 0 1 170.67 -162.13A85.33 85.33 0 0 1 341.33 -162.13A85.33 85.33 0 0 1 512 -162.13A85.33 85.33 0 0 1 682.67 -162.13A85.33 85.33 0 0 1 853.33 -162.13A85.33 85.33 0 0 1 1024 -162.13A85.33 85.33 0 0 1 1194.67 -162.13L-170.67 -162.13" data-idx="3" transform="matrix(1,0,0,1,56.141258239746094,0)">

</path>

</g><g data-idx="6" transform="matrix(1,0,0,1,0,4.92760705947876)"><path fill="#01f7f8" d="M-85.33 -128A85.33 85.33 0 0 1 85.33 -128A85.33 85.33 0 0 1 256 -128A85.33 85.33 0 0 1 426.67 -128A85.33 85.33 0 0 1 597.33 -128A85.33 85.33 0 0 1 768 -128A85.33 85.33 0 0 1 938.67 -128A85.33 85.33 0 0 1 1109.33 -128A85.33 85.33 0 0 1 1280 -128L-85.33 -128" data-idx="7" transform="matrix(1,0,0,1,41.08213806152344,0)">

</path>

</g><g data-idx="10" transform="matrix(1,0,0,1,0,8.442281723022461)"><path fill="#02eff0" d="M-170.67 -93.87A85.33 85.33 0 0 1 0 -93.87A85.33 85.33 0 0 1 170.67 -93.87A85.33 85.33 0 0 1 341.33 -93.87A85.33 85.33 0 0 1 512 -93.87A85.33 85.33 0 0 1 682.67 -93.87A85.33 85.33 0 0 1 853.33 -93.87A85.33 85.33 0 0 1 1024 -93.87A85.33 85.33 0 0 1 1194.67 -93.87L-170.67 -93.87" data-idx="11" transform="matrix(1,0,0,1,26.17919158935547,0)">

</path>

</g><g data-idx="14" transform="matrix(1,0,0,1,0,7.27914571762085)"><path fill="#02e7e9" d="M-85.33 -59.73A85.33 85.33 0 0 1 85.33 -59.73A85.33 85.33 0 0 1 256 -59.73A85.33 85.33 0 0 1 426.67 -59.73A85.33 85.33 0 0 1 597.33 -59.73A85.33 85.33 0 0 1 768 -59.73A85.33 85.33 0 0 1 938.67 -59.73A85.33 85.33 0 0 1 1109.33 -59.73A85.33 85.33 0 0 1 1280 -59.73L-85.33 -59.73" data-idx="15" transform="matrix(1,0,0,1,12.991065979003906,0)">

</path>

</g><g data-idx="18" transform="matrix(1,0,0,1,0,1.7698240280151367)"><path fill="#03dfe1" d="M-170.67 -25.60A85.33 85.33 0 0 1 0 -25.60A85.33 85.33 0 0 1 170.67 -25.60A85.33 85.33 0 0 1 341.33 -25.60A85.33 85.33 0 0 1 512 -25.60A85.33 85.33 0 0 1 682.67 -25.60A85.33 85.33 0 0 1 853.33 -25.60A85.33 85.33 0 0 1 1024 -25.60A85.33 85.33 0 0 1 1194.67 -25.60L-170.67 -25.60" data-idx="19" transform="matrix(1,0,0,1,3.3929061889648438,0)">

</path>

</g><g data-idx="22" transform="matrix(1,0,0,1,0,-0.01793057844042778)"><path fill="#04d7da" d="M-85.33 8.53A85.33 85.33 0 0 1 85.33 8.53A85.33 85.33 0 0 1 256 8.53A85.33 85.33 0 0 1 426.67 8.53A85.33 85.33 0 0 1 597.33 8.53A85.33 85.33 0 0 1 768 8.53A85.33 85.33 0 0 1 938.67 8.53A85.33 85.33 0 0 1 1109.33 8.53A85.33 85.33 0 0 1 1280 8.53L-85.33 8.53" data-idx="23" transform="matrix(1,0,0,1,-0.052406053990125656,0)">

</path>

</g><g data-idx="26" transform="matrix(1,0,0,1,0,-2.847949743270874)"><path fill="#05cfd2" d="M-170.67 42.67A85.33 85.33 0 0 1 0 42.67A85.33 85.33 0 0 1 170.67 42.67A85.33 85.33 0 0 1 341.33 42.67A85.33 85.33 0 0 1 512 42.67A85.33 85.33 0 0 1 682.67 42.67A85.33 85.33 0 0 1 853.33 42.67A85.33 85.33 0 0 1 1024 42.67A85.33 85.33 0 0 1 1194.67 42.67L-170.67 42.67" data-idx="27" transform="matrix(1,0,0,1,-4.980113983154297,0)">

</path>

</g><g data-idx="30" transform="matrix(1,0,0,1,0,-7.914077281951904)"><path fill="#05c7cb" d="M-85.33 76.80A85.33 85.33 0 0 1 85.33 76.80A85.33 85.33 0 0 1 256 76.80A85.33 85.33 0 0 1 426.67 76.80A85.33 85.33 0 0 1 597.33 76.80A85.33 85.33 0 0 1 768 76.80A85.33 85.33 0 0 1 938.67 76.80A85.33 85.33 0 0 1 1109.33 76.80A85.33 85.33 0 0 1 1280 76.80L-85.33 76.80" data-idx="31" transform="matrix(1,0,0,1,-15.508456230163574,0)">

</path>

</g><g data-idx="34" transform="matrix(1,0,0,1,0,-8.176199913024902)"><path fill="#06bfc3" d="M-170.67 110.93A85.33 85.33 0 0 1 0 110.93A85.33 85.33 0 0 1 170.67 110.93A85.33 85.33 0 0 1 341.33 110.93A85.33 85.33 0 0 1 512 110.93A85.33 85.33 0 0 1 682.67 110.93A85.33 85.33 0 0 1 853.33 110.93A85.33 85.33 0 0 1 1024 110.93A85.33 85.33 0 0 1 1194.67 110.93L-170.67 110.93" data-idx="35" transform="matrix(1,0,0,1,-29.19209098815918,0)">

</path>

</g><g data-idx="38" transform="matrix(1,0,0,1,0,-3.605721950531006)"><path fill="#07b7bc" d="M-85.33 145.07A85.33 85.33 0 0 1 85.33 145.07A85.33 85.33 0 0 1 256 145.07A85.33 85.33 0 0 1 426.67 145.07A85.33 85.33 0 0 1 597.33 145.07A85.33 85.33 0 0 1 768 145.07A85.33 85.33 0 0 1 938.67 145.07A85.33 85.33 0 0 1 1109.33 145.07A85.33 85.33 0 0 1 1280 145.07L-85.33 145.07" data-idx="39" transform="matrix(1,0,0,1,-44.25121307373047,0)">

</path>

</g><g data-idx="42" transform="matrix(1,0,0,1,0,-0.09105110168457031)"><path fill="#08afb4" d="M-170.67 179.20A85.33 85.33 0 0 1 0 179.20A85.33 85.33 0 0 1 170.67 179.20A85.33 85.33 0 0 1 341.33 179.20A85.33 85.33 0 0 1 512 179.20A85.33 85.33 0 0 1 682.67 179.20A85.33 85.33 0 0 1 853.33 179.20A85.33 85.33 0 0 1 1024 179.20A85.33 85.33 0 0 1 1194.67 179.20L-170.67 179.20" data-idx="43" transform="matrix(1,0,0,1,-59.15415573120117,0)">

</path>

</g><g data-idx="46" transform="matrix(1,0,0,1,0,1.254190444946289)"><path fill="#09a7ad" d="M-85.33 213.33A85.33 85.33 0 0 1 85.33 213.33A85.33 85.33 0 0 1 256 213.33A85.33 85.33 0 0 1 426.67 213.33A85.33 85.33 0 0 1 597.33 213.33A85.33 85.33 0 0 1 768 213.33A85.33 85.33 0 0 1 938.67 213.33A85.33 85.33 0 0 1 1109.33 213.33A85.33 85.33 0 0 1 1280 213.33L-85.33 213.33" data-idx="47" transform="matrix(1,0,0,1,-72.34228515625,0)">

</path>

</g><g data-idx="50" transform="matrix(1,0,0,1,0,6.7635111808776855)"><path fill="#099fa6" d="M-170.67 247.47A85.33 85.33 0 0 1 0 247.47A85.33 85.33 0 0 1 170.67 247.47A85.33 85.33 0 0 1 341.33 247.47A85.33 85.33 0 0 1 512 247.47A85.33 85.33 0 0 1 682.67 247.47A85.33 85.33 0 0 1 853.33 247.47A85.33 85.33 0 0 1 1024 247.47A85.33 85.33 0 0 1 1194.67 247.47L-170.67 247.47" data-idx="51" transform="matrix(1,0,0,1,-81.94043731689453,0)">

</path>

</g><g data-idx="54" transform="matrix(1,0,0,1,0,8.515401840209961)"><path fill="#0a979e" d="M-85.33 281.60A85.33 85.33 0 0 1 85.33 281.60A85.33 85.33 0 0 1 256 281.60A85.33 85.33 0 0 1 426.67 281.60A85.33 85.33 0 0 1 597.33 281.60A85.33 85.33 0 0 1 768 281.60A85.33 85.33 0 0 1 938.67 281.60A85.33 85.33 0 0 1 1109.33 281.60A85.33 85.33 0 0 1 1280 281.60L-85.33 281.60" data-idx="55" transform="matrix(1,0,0,1,-85.28092956542969,0)">

</path>

</g><g data-idx="58" transform="matrix(1,0,0,1,0,5.685379505157471)"><path fill="#0b8f97" d="M-170.67 315.73A85.33 85.33 0 0 1 0 315.73A85.33 85.33 0 0 1 170.67 315.73A85.33 85.33 0 0 1 341.33 315.73A85.33 85.33 0 0 1 512 315.73A85.33 85.33 0 0 1 682.67 315.73A85.33 85.33 0 0 1 853.33 315.73A85.33 85.33 0 0 1 1024 315.73A85.33 85.33 0 0 1 1194.67 315.73L-170.67 315.73" data-idx="59" transform="matrix(1,0,0,1,-80.35322570800781,0)">

</path>

</g><g data-idx="62" transform="matrix(1,0,0,1,0,0.6192541122436523)"><path fill="#0c878f" d="M-85.33 349.87A85.33 85.33 0 0 1 85.33 349.87A85.33 85.33 0 0 1 256 349.87A85.33 85.33 0 0 1 426.67 349.87A85.33 85.33 0 0 1 597.33 349.87A85.33 85.33 0 0 1 768 349.87A85.33 85.33 0 0 1 938.67 349.87A85.33 85.33 0 0 1 1109.33 349.87A85.33 85.33 0 0 1 1280 349.87L-85.33 349.87" data-idx="63" transform="matrix(1,0,0,1,-69.82488250732422,0)">

</path>

</g><g data-idx="66" transform="matrix(1,0,0,1,0,-0.35713431239128113)"><path fill="#0c7f88" d="M-170.67 384A85.33 85.33 0 0 1 0 384A85.33 85.33 0 0 1 170.67 384A85.33 85.33 0 0 1 341.33 384A85.33 85.33 0 0 1 512 384A85.33 85.33 0 0 1 682.67 384A85.33 85.33 0 0 1 853.33 384A85.33 85.33 0 0 1 1024 384A85.33 85.33 0 0 1 1194.67 384L-170.67 384" data-idx="67" transform="matrix(1,0,0,1,-56.14124298095703,0)">

</path>

</g><g data-idx="70" transform="matrix(1,0,0,1,0,-4.927615165710449)"><path fill="#0d7780" d="M-85.33 418.13A85.33 85.33 0 0 1 85.33 418.13A85.33 85.33 0 0 1 256 418.13A85.33 85.33 0 0 1 426.67 418.13A85.33 85.33 0 0 1 597.33 418.13A85.33 85.33 0 0 1 768 418.13A85.33 85.33 0 0 1 938.67 418.13A85.33 85.33 0 0 1 1109.33 418.13A85.33 85.33 0 0 1 1280 418.13L-85.33 418.13" data-idx="71" transform="matrix(1,0,0,1,-41.082122802734375,0)">

</path>

</g><g data-idx="74" transform="matrix(1,0,0,1,0,-8.442282676696777)"><path fill="#0e6f79" d="M-170.67 452.27A85.33 85.33 0 0 1 0 452.27A85.33 85.33 0 0 1 170.67 452.27A85.33 85.33 0 0 1 341.33 452.27A85.33 85.33 0 0 1 512 452.27A85.33 85.33 0 0 1 682.67 452.27A85.33 85.33 0 0 1 853.33 452.27A85.33 85.33 0 0 1 1024 452.27A85.33 85.33 0 0 1 1194.67 452.27L-170.67 452.27" data-idx="75" transform="matrix(1,0,0,1,-26.179180145263672,0)">

</path>

</g><g data-idx="78" transform="matrix(1,0,0,1,0,-7.279138565063477)"><path fill="#0f6771" d="M-85.33 486.40A85.33 85.33 0 0 1 85.33 486.40A85.33 85.33 0 0 1 256 486.40A85.33 85.33 0 0 1 426.67 486.40A85.33 85.33 0 0 1 597.33 486.40A85.33 85.33 0 0 1 768 486.40A85.33 85.33 0 0 1 938.67 486.40A85.33 85.33 0 0 1 1109.33 486.40A85.33 85.33 0 0 1 1280 486.40L-85.33 486.40" data-idx="79" transform="matrix(1,0,0,1,-12.991050720214844,0)">

</path>

</g><g data-idx="82" transform="matrix(1,0,0,1,0,-1.7698168754577637)"><path fill="#0f5f6a" d="M-170.67 520.53A85.33 85.33 0 0 1 0 520.53A85.33 85.33 0 0 1 170.67 520.53A85.33 85.33 0 0 1 341.33 520.53A85.33 85.33 0 0 1 512 520.53A85.33 85.33 0 0 1 682.67 520.53A85.33 85.33 0 0 1 853.33 520.53A85.33 85.33 0 0 1 1024 520.53A85.33 85.33 0 0 1 1194.67 520.53L-170.67 520.53" data-idx="83" transform="matrix(1,0,0,1,-3.3928985595703125,0)">

</path>

</g><g data-idx="86" transform="matrix(1,0,0,1,0,0.017931031063199043)"><path fill="#105763" d="M-85.33 554.67A85.33 85.33 0 0 1 85.33 554.67A85.33 85.33 0 0 1 256 554.67A85.33 85.33 0 0 1 426.67 554.67A85.33 85.33 0 0 1 597.33 554.67A85.33 85.33 0 0 1 768 554.67A85.33 85.33 0 0 1 938.67 554.67A85.33 85.33 0 0 1 1109.33 554.67A85.33 85.33 0 0 1 1280 554.67L-85.33 554.67" data-idx="87" transform="matrix(1,0,0,1,0.05240534245967865,0)">

</path>

</g><g data-idx="90" transform="matrix(1,0,0,1,0,2.8479580879211426)"><path fill="#114f5b" d="M-170.67 588.80A85.33 85.33 0 0 1 0 588.80A85.33 85.33 0 0 1 170.67 588.80A85.33 85.33 0 0 1 341.33 588.80A85.33 85.33 0 0 1 512 588.80A85.33 85.33 0 0 1 682.67 588.80A85.33 85.33 0 0 1 853.33 588.80A85.33 85.33 0 0 1 1024 588.80A85.33 85.33 0 0 1 1194.67 588.80L-170.67 588.80" data-idx="91" transform="matrix(1,0,0,1,4.980108261108398,0)">

</path>

</g><g data-idx="94" transform="matrix(1,0,0,1,0,7.914080619812012)"><path fill="#124754" d="M-85.33 622.93A85.33 85.33 0 0 1 85.33 622.93A85.33 85.33 0 0 1 256 622.93A85.33 85.33 0 0 1 426.67 622.93A85.33 85.33 0 0 1 597.33 622.93A85.33 85.33 0 0 1 768 622.93A85.33 85.33 0 0 1 938.67 622.93A85.33 85.33 0 0 1 1109.33 622.93A85.33 85.33 0 0 1 1280 622.93L-85.33 622.93" data-idx="95" transform="matrix(1,0,0,1,15.508447647094727,0)">

</path>

</g><g data-idx="98" transform="matrix(1,0,0,1,0,8.176197052001953)"><path fill="#133f4c" d="M-170.67 657.07A85.33 85.33 0 0 1 0 657.07A85.33 85.33 0 0 1 170.67 657.07A85.33 85.33 0 0 1 341.33 657.07A85.33 85.33 0 0 1 512 657.07A85.33 85.33 0 0 1 682.67 657.07A85.33 85.33 0 0 1 853.33 657.07A85.33 85.33 0 0 1 1024 657.07A85.33 85.33 0 0 1 1194.67 657.07L-170.67 657.07" data-idx="99" transform="matrix(1,0,0,1,29.192081451416016,0)">

</path>

</g><g data-idx="102" transform="matrix(1,0,0,1,0,3.6057119369506836)"><path fill="#133745" d="M-85.33 691.20A85.33 85.33 0 0 1 85.33 691.20A85.33 85.33 0 0 1 256 691.20A85.33 85.33 0 0 1 426.67 691.20A85.33 85.33 0 0 1 597.33 691.20A85.33 85.33 0 0 1 768 691.20A85.33 85.33 0 0 1 938.67 691.20A85.33 85.33 0 0 1 1109.33 691.20A85.33 85.33 0 0 1 1280 691.20L-85.33 691.20" data-idx="103" transform="matrix(1,0,0,1,44.25120544433594,0)">

</path>

</g><g data-idx="106" transform="matrix(1,0,0,1,0,0.0910491943359375)"><path fill="#142f3d" d="M-170.67 725.33A85.33 85.33 0 0 1 0 725.33A85.33 85.33 0 0 1 170.67 725.33A85.33 85.33 0 0 1 341.33 725.33A85.33 85.33 0 0 1 512 725.33A85.33 85.33 0 0 1 682.67 725.33A85.33 85.33 0 0 1 853.33 725.33A85.33 85.33 0 0 1 1024 725.33A85.33 85.33 0 0 1 1194.67 725.33L-170.67 725.33" data-idx="107" transform="matrix(1,0,0,1,59.154151916503906,0)">

</path>

</g><g data-idx="110" transform="matrix(1,0,0,1,0,-1.2541965246200562)"><path fill="#152736" d="M-85.33 759.47A85.33 85.33 0 0 1 85.33 759.47A85.33 85.33 0 0 1 256 759.47A85.33 85.33 0 0 1 426.67 759.47A85.33 85.33 0 0 1 597.33 759.47A85.33 85.33 0 0 1 768 759.47A85.33 85.33 0 0 1 938.67 759.47A85.33 85.33 0 0 1 1109.33 759.47A85.33 85.33 0 0 1 1280 759.47L-85.33 759.47" data-idx="111" transform="matrix(1,0,0,1,72.34227752685547,0)">

</path>

</g><g data-idx="114" transform="matrix(1,0,0,1,0,-6.763518810272217)"><path fill="#161f2e" d="M-170.67 793.60A85.33 85.33 0 0 1 0 793.60A85.33 85.33 0 0 1 170.67 793.60A85.33 85.33 0 0 1 341.33 793.60A85.33 85.33 0 0 1 512 793.60A85.33 85.33 0 0 1 682.67 793.60A85.33 85.33 0 0 1 853.33 793.60A85.33 85.33 0 0 1 1024 793.60A85.33 85.33 0 0 1 1194.67 793.60L-170.67 793.60" data-idx="115" transform="matrix(1,0,0,1,81.9404296875,0)">

</path>

</g><g data-idx="118" transform="matrix(1,0,0,1,0,-8.515401840209961)"><path fill="#161727" d="M-85.33 827.73A85.33 85.33 0 0 1 85.33 827.73A85.33 85.33 0 0 1 256 827.73A85.33 85.33 0 0 1 426.67 827.73A85.33 85.33 0 0 1 597.33 827.73A85.33 85.33 0 0 1 768 827.73A85.33 85.33 0 0 1 938.67 827.73A85.33 85.33 0 0 1 1109.33 827.73A85.33 85.33 0 0 1 1280 827.73L-85.33 827.73" data-idx="119" transform="matrix(1,0,0,1,85.28092956542969,0)">

</path>

</g><g data-idx="122" transform="matrix(1,0,0,1,0,-5.685372352600098)"><path fill="#170f1f" d="M-170.67 861.87A85.33 85.33 0 0 1 0 861.87A85.33 85.33 0 0 1 170.67 861.87A85.33 85.33 0 0 1 341.33 861.87A85.33 85.33 0 0 1 512 861.87A85.33 85.33 0 0 1 682.67 861.87A85.33 85.33 0 0 1 853.33 861.87A85.33 85.33 0 0 1 1024 861.87A85.33 85.33 0 0 1 1194.67 861.87L-170.67 861.87" data-idx="123" transform="matrix(1,0,0,1,80.35322570800781,0)">

</path>

</g><g data-idx="126" transform="matrix(1,0,0,1,0,-0.6192488670349121)"><path fill="#180718" d="M-85.33 896A85.33 85.33 0 0 1 85.33 896A85.33 85.33 0 0 1 256 896A85.33 85.33 0 0 1 426.67 896A85.33 85.33 0 0 1 597.33 896A85.33 85.33 0 0 1 768 896A85.33 85.33 0 0 1 938.67 896A85.33 85.33 0 0 1 1109.33 896A85.33 85.33 0 0 1 1280 896L-85.33 896" data-idx="127" transform="matrix(1,0,0,1,69.82489013671875,0)">

</path>

</g><g data-idx="130"></g></g><text data-watermark="true" text-anchor="middle" dominant-baseline="middle" stroke-opacity="0.1" fill="black" fill-opacity="0.1" stroke="white" stroke-width="1" font-size="15.0" x="512.0" y="354.4" data-idx="131" style="opacity: 1; font-size: 15px;"></text></svg>