<?xml version="1.0" encoding="utf-8"?>
<!-- Generator: Adobe Illustrator 28.1.0, SVG Export Plug-In . SVG Version: 6.00 Build 0)  -->
<svg version="1.1" xmlns="http://www.w3.org/2000/svg" xmlns:xlink="http://www.w3.org/1999/xlink" x="0px" y="0px"
	 viewBox="0 0 750 379.1" style="enable-background:new 0 0 750 379.1;" xml:space="preserve">
<style type="text/css">
	.st0{opacity:0.35;}
	.st1{fill:#009966;}
</style>
<g id="BACKGROUND">
</g>
<g id="OBJECTS">
	<g class="st0">
		<g>
			<path class="st1" d="M78.2,353.1C78.2,353.1,78.2,353.1,78.2,353.1C78.2,353.1,78.2,353.1,78.2,353.1
				C78.2,353.1,78.2,353.1,78.2,353.1C78.2,353.1,78.2,353.1,78.2,353.1C78.1,353,78.1,353,78.2,353.1L78.2,353.1z"/>
			<path class="st1" d="M74.5,351.8C74.4,351.8,74.4,351.8,74.5,351.8C74.4,351.8,74.4,351.8,74.5,351.8L74.5,351.8z"/>
			<path class="st1" d="M72.7,341.3c0,0,0-0.1,0.1-0.1C72.7,341.2,72.6,341.2,72.7,341.3L72.7,341.3z"/>
			<path class="st1" d="M100.5,349.9C100.5,349.9,100.5,349.9,100.5,349.9C100.5,349.9,100.5,350,100.5,349.9L100.5,349.9z"/>
			<path class="st1" d="M101.8,342.9c0.4,0,0.8,0,1.1,0c-0.4-1.7-2.8-2-2.9-3.9c0.8-0.8,2,0.5,2.8-0.5c0.2-0.5-0.1-0.8-0.3-1.1
				c-1.8-2-2.5-4.5-3.8-6.8c-0.8-1.5,0.5-1,1.3-1.2c-1.9-1.7-4.1-3.2-4.8-5.7c-0.1-0.4,0.1-0.5,0.4-0.4c1.2,0.4,2,1.5,3,2.2
				c-0.5-1.2-1.2-2.2-1.9-3.3c-0.4-0.7-2.5-2.3-1.9-3.1c0.1-0.1,1.9,0.7,2,0.6c-0.6-1.5-2.6-3.2-3.4-4.5c-0.8-1.4-3.5-3.4-0.6-2
				c2.1,1-2.8-5.5-4.4-7.2c-0.4-0.4-1.9-0.8-2.2-0.4c-0.9,1.6-3.6,5.5-5.7,7.7c1.6,0.3,3-0.4,2.6,0.2c-0.9,1.3-3,2.3-3.9,3.6
				c0.4,0.7,1.3-0.5,1.5,0.6c-1.1,2.3-3.5,3.9-4.6,6.3c1,0,1.6-1.3,3.2-1c-2.5,2.9-2.9,6.5-4.7,9.5c0.4,0,0.8,0,1.2,0.1
				c-0.5,1.6-0.9,3.2-1.4,4.8c2-1.6,2.9-4.1,5.4-6.1c-0.7,2.5-1.8,4-3,5.5c-1.2,1.6-2.9,2.8-3.6,4.8c0.7-0.7,1.5-1.3,2.2-2
				c0.5-0.5,1.1-1.1,1.9-0.6c1,0.7,0.3,1.5-0.2,2.1c-1.1,1.6-2.4,3.1-3.5,4.7c-0.8,1.2-2.1,2.1-2.8,4c2.3-0.9,3.4-2.9,5.1-3.8
				c-0.1,0.7-0.4,1.3-0.8,1.9c-1.1,1.3-1.3,2.7-0.5,4.1c1.2-1.5,2.4-3,3.6-4.5c0.4-0.5,0.8-1,1.3-1.7c0.5,1.3-0.1,1.8-0.9,2.1
				c0.4,1.8-1.2,3.5-0.3,5.3c1.7,0.8,2.9-0.4,4.1-1.2c1,1.1-0.8,1.7-0.1,2.8c1.7-0.5,2.1-2.4,3.6-3.3c0.1,0.8-0.4,12-0.3,13.2
				c0.1,1.2,5,1.1,4.9-0.4c0-0.8,0.1-9.1-0.2-12.2c-0.1-1.5,1.4-0.9,2.8-0.2c0.8,0.4,1.2,1.4,2.3,1.4c0.3-0.7-0.5-1-0.5-1.6
				c-1.4-0.9-2.3-2.1-2.8-3.7c1.2,1,2.5,1.9,3.1,3.4c0.8,0.4,1.5,0.9,1.9,1.7c0.3,0.7,0.7,1.3,1.6,1.5c-0.2-1.9-1.3-3.6-0.9-5.8
				c1.1,0.6,2,1,2.8,1.5c0-1.2-0.8-1.9-1.6-2.7c-1-0.9-1.9-1.8-2.7-2.8c-0.9-1-1.7-2.1-1.4-4.1c1.3,1.6,2.2,2.9,3.3,4
				c1.9,2,3.1,4.7,5.6,6.2c-0.3-0.8-0.8-1.6-0.9-2.5c-0.1-1,0.2-2,1.6-1.8C103.9,345.2,102.4,344.4,101.8,342.9z M96.3,336.9
				c-0.1-0.1-2.2-4.8-2.2-5c0.2,0,3.4,4.6,3.5,4.7c0.1,0.1,0.7,2.6,0.8,2.7C98.1,339.3,96.4,337,96.3,336.9z"/>
			<polygon class="st1" points="98.6,354.3 98.6,354.3 98.6,354.3 			"/>
			<path class="st1" d="M102.3,342.5C102.3,342.5,102.3,342.5,102.3,342.5C102.3,342.5,102.3,342.5,102.3,342.5
				C102.3,342.5,102.3,342.5,102.3,342.5z"/>
			<path class="st1" d="M104.3,346.2C104.2,346.2,104.2,346.2,104.3,346.2C104.2,346.2,104.2,346.2,104.3,346.2L104.3,346.2z"/>
			<path class="st1" d="M72.7,341.3C72.7,341.3,72.6,341.3,72.7,341.3C72.6,341.3,72.6,341.3,72.7,341.3
				C72.6,341.3,72.6,341.3,72.7,341.3z"/>
			<path class="st1" d="M102.3,342.5C102.3,342.5,102.3,342.5,102.3,342.5c0,0.1,0.1,0.1,0.1,0.1
				C102.4,342.6,102.4,342.5,102.3,342.5z"/>
			<path class="st1" d="M103.6,350.7l0-0.1l0,0c0,0,0,0,0,0c0,0,0,0,0,0C103.6,350.6,103.6,350.7,103.6,350.7z"/>
			<path class="st1" d="M73.8,331.9L73.8,331.9L73.8,331.9L73.8,331.9C73.8,331.9,73.8,331.9,73.8,331.9
				C73.8,331.9,73.8,331.9,73.8,331.9L73.8,331.9z"/>
			<path class="st1" d="M73.7,337C73.7,337,73.8,336.9,73.7,337C73.8,336.9,73.8,336.9,73.7,337c0.1-0.1,0.1-0.1,0.1-0.1
				c0,0,0,0,0,0L73.7,337z"/>
		</g>
		<g>
			<path class="st1" d="M288.3,349.2C288.3,349.2,288.3,349.2,288.3,349.2L288.3,349.2L288.3,349.2
				C288.3,349.2,288.3,349.1,288.3,349.2C288.3,349.1,288.3,349.1,288.3,349.2L288.3,349.2z"/>
			<path class="st1" d="M284.6,348.1C284.6,348.1,284.6,348.1,284.6,348.1C284.6,348.1,284.6,348.1,284.6,348.1L284.6,348.1z"/>
			<path class="st1" d="M282.9,339.3c0,0,0-0.1,0-0.1C282.9,339.2,282.9,339.2,282.9,339.3C282.8,339.2,282.9,339.3,282.9,339.3z"/>
			<path class="st1" d="M310.4,346.5C310.4,346.5,310.4,346.5,310.4,346.5C310.4,346.5,310.4,346.5,310.4,346.5L310.4,346.5z"/>
			<path class="st1" d="M311.7,340.6c0.4,0,0.8,0,1.1,0c-0.4-1.5-2.8-1.7-2.9-3.3c0.8-0.7,2,0.4,2.8-0.4c0.2-0.4-0.1-0.7-0.3-0.9
				c-1.8-1.7-2.5-3.8-3.7-5.7c-0.8-1.2,0.5-0.8,1.3-1c-1.9-1.5-4-2.7-4.8-4.8c-0.1-0.3,0.1-0.4,0.4-0.4c1.2,0.3,1.9,1.2,3,1.8
				c-0.5-1-1.2-1.9-1.8-2.7c-0.4-0.6-2.5-1.9-1.9-2.6c0.1-0.1,1.9,0.6,2,0.5c-0.5-1.3-2.6-2.7-3.4-3.8c-0.8-1.2-3.5-2.9-0.6-1.6
				c2,0.9-2.7-4.6-4.4-6.1c-0.4-0.3-1.9-0.7-2.2-0.3c-0.9,1.4-3.5,4.6-5.6,6.5c1.6,0.2,2.9-0.3,2.6,0.2c-0.9,1.1-2.9,1.9-3.8,3
				c0.4,0.6,1.3-0.4,1.5,0.5c-1.1,2-3.4,3.3-4.5,5.3c1,0,1.6-1.1,3.1-0.8c-2.5,2.4-2.9,5.4-4.6,8c0.4,0,0.8,0,1.2,0.1
				c-0.4,1.4-0.9,2.7-1.3,4.1c2-1.3,2.9-3.4,5.3-5.1c-0.7,2.1-1.8,3.4-3,4.7c-1.2,1.3-2.8,2.4-3.5,4c0.7-0.6,1.4-1.1,2.2-1.7
				c0.5-0.4,1.1-0.9,1.8-0.5c1,0.6,0.3,1.2-0.2,1.8c-1.1,1.4-2.4,2.6-3.4,4c-0.8,1-2.1,1.8-2.8,3.4c2.3-0.8,3.3-2.4,5.1-3.2
				c-0.1,0.6-0.4,1.1-0.8,1.6c-1.1,1.1-1.3,2.2-0.5,3.5c1.2-1.3,2.4-2.5,3.6-3.8c0.4-0.4,0.8-0.9,1.2-1.4c0.5,1.1-0.1,1.5-0.9,1.8
				c0.4,1.5-1.2,3-0.3,4.5c1.7,0.7,2.9-0.4,4-1c0.9,0.9-0.8,1.5-0.1,2.3c1.7-0.4,2.1-2,3.6-2.8c0.1,0.7-0.4,10.1-0.3,11.1
				c0.1,1,4.9,1,4.9-0.3c0-0.7,0.1-7.6-0.1-10.3c-0.1-1.3,1.3-0.8,2.7-0.2c0.8,0.3,1.2,1.2,2.2,1.2c0.3-0.6-0.5-0.9-0.4-1.4
				c-1.4-0.7-2.3-1.8-2.7-3.1c1.2,0.8,2.4,1.6,3.1,2.9c0.8,0.3,1.4,0.7,1.8,1.4c0.3,0.6,0.7,1.1,1.6,1.3c-0.2-1.6-1.3-3-0.9-4.9
				c1.1,0.5,2,0.9,2.8,1.2c0-1-0.8-1.6-1.6-2.3c-1-0.7-1.9-1.5-2.7-2.3c-0.8-0.8-1.7-1.7-1.4-3.4c1.3,1.3,2.2,2.4,3.2,3.4
				c1.9,1.7,3.1,3.9,5.5,5.2c-0.3-0.7-0.8-1.4-0.9-2.1c-0.1-0.8,0.2-1.7,1.6-1.5C313.8,342.5,312.3,341.9,311.7,340.6z M306.2,335.6
				c-0.1-0.1-2.1-4.1-2.2-4.2c0.2,0,3.3,3.8,3.4,3.9c0.1,0.1,0.7,2.2,0.8,2.3C308.1,337.6,306.3,335.6,306.2,335.6z"/>
			<polygon class="st1" points="308.6,350.2 308.6,350.2 308.6,350.2 			"/>
			<path class="st1" d="M312.2,340.3C312.2,340.3,312.2,340.3,312.2,340.3C312.2,340.3,312.2,340.3,312.2,340.3
				C312.2,340.3,312.2,340.3,312.2,340.3z"/>
			<path class="st1" d="M314.1,343.4C314.1,343.4,314.1,343.4,314.1,343.4C314.1,343.4,314.1,343.4,314.1,343.4L314.1,343.4z"/>
			<path class="st1" d="M282.9,339.3C282.9,339.3,282.8,339.2,282.9,339.3C282.8,339.2,282.8,339.3,282.9,339.3
				C282.8,339.3,282.8,339.3,282.9,339.3z"/>
			<path class="st1" d="M312.2,340.3C312.2,340.3,312.2,340.3,312.2,340.3c0,0.1,0.1,0.1,0.1,0.1
				C312.3,340.3,312.3,340.3,312.2,340.3z"/>
			<path class="st1" d="M313.5,347.1L313.5,347.1l0-0.1c0,0,0,0,0,0c0,0,0,0,0,0C313.5,347.1,313.5,347.1,313.5,347.1z"/>
			<path class="st1" d="M284,331.4L284,331.4L284,331.4L284,331.4C284,331.4,284,331.4,284,331.4C284,331.4,284,331.4,284,331.4
				L284,331.4z"/>
			<path class="st1" d="M283.9,335.7C283.9,335.7,284,335.6,283.9,335.7C284,335.6,284,335.6,283.9,335.7
				C284,335.6,284,335.6,283.9,335.7C284,335.6,284,335.6,283.9,335.7L283.9,335.7z"/>
		</g>
		<g>
			<path class="st1" d="M216.9,351.8C216.9,351.8,216.9,351.8,216.9,351.8L216.9,351.8L216.9,351.8
				C216.9,351.7,216.9,351.7,216.9,351.8C216.9,351.7,216.9,351.7,216.9,351.8L216.9,351.8z"/>
			<path class="st1" d="M213.8,350.9C213.8,350.9,213.8,350.8,213.8,350.9C213.8,350.8,213.8,350.8,213.8,350.9L213.8,350.9z"/>
			<path class="st1" d="M212.3,343.5C212.3,343.4,212.4,343.4,212.3,343.5C212.4,343.4,212.3,343.4,212.3,343.5
				C212.3,343.4,212.3,343.5,212.3,343.5z"/>
			<path class="st1" d="M235.4,349.5C235.4,349.5,235.4,349.5,235.4,349.5C235.4,349.5,235.4,349.5,235.4,349.5L235.4,349.5z"/>
			<path class="st1" d="M236.5,344.6c0.3,0,0.6,0,0.9,0c-0.3-1.2-2.3-1.4-2.4-2.8c0.7-0.6,1.7,0.4,2.3-0.3c0.1-0.3,0-0.6-0.3-0.8
				c-1.5-1.4-2.1-3.2-3.1-4.8c-0.7-1,0.4-0.7,1.1-0.9c-1.6-1.2-3.4-2.2-4-4c-0.1-0.3,0.1-0.4,0.4-0.3c1,0.3,1.6,1,2.5,1.5
				c-0.4-0.8-1-1.6-1.5-2.3c-0.4-0.5-2.1-1.6-1.6-2.2c0.1-0.1,1.6,0.5,1.7,0.4c-0.5-1.1-2.1-2.2-2.8-3.2c-0.7-1-2.9-2.4-0.5-1.4
				c1.7,0.7-2.3-3.9-3.7-5.1c-0.3-0.3-1.6-0.6-1.8-0.3c-0.8,1.1-3,3.8-4.7,5.4c1.4,0.2,2.5-0.3,2.1,0.1c-0.8,0.9-2.4,1.6-3.2,2.5
				c0.3,0.5,1.1-0.4,1.3,0.4c-0.9,1.6-2.9,2.7-3.8,4.5c0.8,0,1.3-0.9,2.6-0.7c-2.1,2-2.4,4.6-3.9,6.7c0.3,0,0.7,0,1,0
				c-0.4,1.1-0.7,2.3-1.1,3.4c1.6-1.1,2.4-2.9,4.4-4.3c-0.6,1.8-1.5,2.8-2.5,3.9c-1,1.1-2.4,2-2.9,3.3c0.6-0.5,1.2-0.9,1.8-1.4
				c0.4-0.3,0.9-0.8,1.5-0.4c0.9,0.5,0.2,1-0.1,1.5c-0.9,1.1-2,2.2-2.9,3.3c-0.7,0.9-1.8,1.5-2.3,2.8c1.9-0.6,2.8-2,4.3-2.7
				c-0.1,0.5-0.3,0.9-0.7,1.3c-0.9,0.9-1.1,1.9-0.5,2.9c1-1.1,2-2.1,3-3.2c0.3-0.4,0.6-0.7,1-1.2c0.4,0.9,0,1.2-0.7,1.5
				c0.3,1.3-1,2.5-0.2,3.7c1.4,0.6,2.4-0.3,3.4-0.9c0.8,0.8-0.7,1.2-0.1,1.9c1.4-0.3,1.8-1.7,3-2.3c0.1,0.6-0.3,8.5-0.3,9.2
				c0.1,0.8,4.1,0.8,4.1-0.3c0-0.6,0.1-6.4-0.1-8.6c-0.1-1.1,1.1-0.7,2.3-0.1c0.6,0.3,1,1,1.9,1c0.3-0.5-0.4-0.7-0.4-1.2
				c-1.2-0.6-1.9-1.5-2.3-2.6c1,0.7,2,1.4,2.6,2.4c0.7,0.3,1.2,0.6,1.5,1.2c0.3,0.5,0.6,0.9,1.3,1.1c-0.2-1.3-1-2.6-0.7-4.1
				c0.9,0.4,1.6,0.7,2.4,1c0-0.8-0.6-1.4-1.3-1.9c-0.8-0.6-1.6-1.3-2.3-2c-0.7-0.7-1.4-1.5-1.2-2.9c1.1,1.1,1.8,2,2.7,2.8
				c1.6,1.4,2.6,3.3,4.6,4.3c-0.3-0.6-0.7-1.2-0.7-1.7c-0.1-0.7,0.1-1.4,1.3-1.3C238.2,346.2,237,345.6,236.5,344.6z M231.9,340.4
				c-0.1-0.1-1.8-3.4-1.8-3.5c0.2,0,2.8,3.2,2.9,3.3c0.1,0.1,0.6,1.8,0.6,1.9C233.4,342,232,340.4,231.9,340.4z"/>
			<polygon class="st1" points="233.8,352.6 233.8,352.6 233.8,352.6 			"/>
			<path class="st1" d="M236.9,344.3C236.9,344.3,236.9,344.3,236.9,344.3C236.9,344.3,236.9,344.3,236.9,344.3L236.9,344.3z"/>
			<path class="st1" d="M238.5,346.9C238.5,346.9,238.5,346.9,238.5,346.9C238.4,346.9,238.5,346.9,238.5,346.9L238.5,346.9z"/>
			<path class="st1" d="M212.3,343.5C212.3,343.5,212.3,343.4,212.3,343.5C212.3,343.5,212.3,343.5,212.3,343.5
				C212.3,343.5,212.3,343.5,212.3,343.5z"/>
			<path class="st1" d="M236.9,344.3C236.9,344.3,236.9,344.3,236.9,344.3c0,0,0.1,0.1,0.1,0.1C237,344.4,236.9,344.3,236.9,344.3z"
				/>
			<path class="st1" d="M238,350.1L238,350.1L238,350.1C237.9,350,237.9,350,238,350.1C237.9,350,237.9,350,238,350.1
				C237.9,350,238,350.1,238,350.1z"/>
			<path class="st1" d="M213.3,336.9L213.3,336.9L213.3,336.9L213.3,336.9C213.3,336.9,213.3,336.9,213.3,336.9
				C213.3,336.9,213.3,336.9,213.3,336.9L213.3,336.9z"/>
			<polygon class="st1" points="213.2,340.5 213.3,340.4 213.3,340.4 213.3,340.4 213.3,340.4 			"/>
		</g>
		<g>
			<path class="st1" d="M688.9,358.7C688.9,358.7,688.9,358.7,688.9,358.7L688.9,358.7L688.9,358.7
				C688.9,358.7,688.9,358.7,688.9,358.7C688.8,358.6,688.8,358.6,688.9,358.7L688.9,358.7z"/>
			<path class="st1" d="M685.7,357.7C685.7,357.7,685.7,357.7,685.7,357.7C685.6,357.7,685.6,357.7,685.7,357.7L685.7,357.7z"/>
			<path class="st1" d="M684.1,350C684.1,350,684.1,350,684.1,350C684.1,350,684.1,350,684.1,350C684.1,350,684.1,350,684.1,350z"/>
			<path class="st1" d="M708.1,356.4C708.1,356.4,708.1,356.4,708.1,356.4C708.1,356.4,708.1,356.4,708.1,356.4L708.1,356.4z"/>
			<path class="st1" d="M709.2,351.2c0.3,0,0.7,0,1,0c-0.3-1.3-2.4-1.4-2.5-2.9c0.7-0.6,1.8,0.4,2.4-0.4c0.1-0.4-0.1-0.6-0.3-0.8
				c-1.5-1.5-2.2-3.3-3.2-5c-0.7-1.1,0.5-0.7,1.2-0.9c-1.6-1.3-3.5-2.3-4.2-4.2c-0.1-0.3,0.1-0.4,0.4-0.3c1.1,0.3,1.7,1.1,2.6,1.6
				c-0.5-0.9-1-1.6-1.6-2.4c-0.4-0.5-2.1-1.7-1.6-2.3c0.1-0.1,1.6,0.5,1.7,0.5c-0.5-1.1-2.2-2.3-2.9-3.3c-0.7-1-3.1-2.5-0.5-1.4
				c1.8,0.8-2.4-4-3.8-5.3c-0.3-0.3-1.7-0.6-1.9-0.3c-0.8,1.2-3.1,4-4.9,5.6c1.4,0.2,2.6-0.3,2.2,0.1c-0.8,1-2.5,1.7-3.3,2.6
				c0.3,0.5,1.1-0.4,1.3,0.5c-0.9,1.7-3,2.9-4,4.6c0.9,0,1.4-0.9,2.7-0.7c-2.2,2.1-2.5,4.7-4,7c0.3,0,0.7,0,1,0
				c-0.4,1.2-0.8,2.4-1.2,3.5c1.7-1.1,2.5-3,4.6-4.5c-0.6,1.8-1.6,3-2.6,4.1c-1,1.1-2.5,2.1-3.1,3.5c0.6-0.5,1.3-1,1.9-1.5
				c0.5-0.4,0.9-0.8,1.6-0.4c0.9,0.5,0.2,1.1-0.1,1.5c-1,1.2-2.1,2.3-3,3.5c-0.7,0.9-1.9,1.6-2.4,2.9c2-0.7,2.9-2.1,4.4-2.8
				c-0.1,0.5-0.3,1-0.7,1.4c-0.9,1-1.1,2-0.5,3c1-1.1,2.1-2.2,3.1-3.3c0.3-0.4,0.7-0.8,1.1-1.2c0.4,0.9-0.1,1.3-0.8,1.5
				c0.3,1.3-1.1,2.6-0.3,3.9c1.5,0.6,2.5-0.3,3.5-0.9c0.8,0.8-0.7,1.3-0.1,2c1.5-0.4,1.9-1.8,3.1-2.4c0.1,0.6-0.3,8.8-0.3,9.6
				c0.1,0.8,4.3,0.8,4.3-0.3c0-0.6,0.1-6.6-0.1-8.9c-0.1-1.1,1.2-0.7,2.4-0.1c0.7,0.3,1,1,1.9,1c0.3-0.5-0.4-0.8-0.4-1.2
				c-1.2-0.7-2-1.6-2.4-2.7c1.1,0.7,2.1,1.4,2.7,2.5c0.7,0.3,1.3,0.6,1.6,1.2c0.3,0.5,0.6,1,1.4,1.1c-0.2-1.4-1.1-2.7-0.8-4.2
				c1,0.4,1.7,0.8,2.4,1.1c0-0.9-0.7-1.4-1.4-2c-0.8-0.6-1.6-1.3-2.3-2c-0.7-0.7-1.5-1.5-1.2-3c1.1,1.1,1.9,2.1,2.8,2.9
				c1.6,1.5,2.7,3.4,4.8,4.5c-0.3-0.6-0.7-1.2-0.7-1.8c-0.1-0.7,0.1-1.5,1.4-1.3C711,352.9,709.8,352.3,709.2,351.2z M704.5,346.8
				c-0.1-0.1-1.9-3.5-1.9-3.7c0.2,0,2.9,3.3,3,3.4c0.1,0.1,0.6,1.9,0.7,2C706,348.6,704.6,346.9,704.5,346.8z"/>
			<polygon class="st1" points="706.5,359.6 706.5,359.6 706.5,359.6 			"/>
			<path class="st1" d="M709.7,350.9C709.7,350.9,709.7,350.9,709.7,350.9C709.7,350.9,709.7,350.9,709.7,350.9
				C709.7,350.9,709.7,350.9,709.7,350.9z"/>
			<path class="st1" d="M711.3,353.6C711.3,353.6,711.3,353.6,711.3,353.6C711.3,353.6,711.3,353.6,711.3,353.6L711.3,353.6z"/>
			<path class="st1" d="M684.1,350C684.1,350,684.1,350,684.1,350C684.1,350,684,350.1,684.1,350C684.1,350.1,684.1,350.1,684.1,350
				z"/>
			<path class="st1" d="M709.7,350.9C709.7,350.9,709.7,350.9,709.7,350.9c0,0,0.1,0.1,0.1,0.1C709.8,351,709.7,351,709.7,350.9z"/>
			<path class="st1" d="M710.8,356.9L710.8,356.9l0-0.1c0,0,0,0,0,0C710.7,356.8,710.7,356.8,710.8,356.9
				C710.8,356.8,710.8,356.9,710.8,356.9z"/>
			<path class="st1" d="M685.1,343.2L685.1,343.2L685.1,343.2L685.1,343.2C685.1,343.2,685.1,343.2,685.1,343.2
				C685.1,343.2,685.1,343.2,685.1,343.2L685.1,343.2z"/>
			<polygon class="st1" points="685,346.9 685.1,346.8 685.1,346.8 685.1,346.8 685.1,346.8 			"/>
		</g>
		<g>
			<path class="st1" d="M62.3,348.5C62.3,348.5,62.3,348.5,62.3,348.5C62.3,348.5,62.3,348.5,62.3,348.5L62.3,348.5z"/>
			<path class="st1" d="M65,333.1c-2.4-0.6-4.9,0.1-6.3-1.5c-2.4-2.7-5.8-3.9-8.6-6c-0.5-0.4-1.5-0.5-0.9-1.6
				c5.3,1.2,10.2,4.5,16.8,3.2c-3-2.1-6.6-1.9-8.1-4.6c0.5-1.4,2-0.2,2.7-1.2c-2.3-2.4-6.2-3.1-8.3-6.2c2.3-0.5,3.3,1.9,5.2,1
				c0.2-1.6-1.8-2.7-0.9-4.4c0.2-0.5-0.5-0.8-0.9-1c-2.5-1.1-3.7-3.4-6.9-5c2.9-0.5,5,0.7,7.4-0.4c-2.6-0.6-4.9-1-6.9-2.2
				c-1.8-1.1-1.7-1.3,0.4-2.9c0.1-0.1,0.3-0.3,0.4-0.4c-1.2-1.5,1-1.1,1.3-2c-0.5-0.2-1-0.3-1.5-0.5c-2.7-0.8-2.7-0.8-1.4-2.9
				c0.6-0.9,0.4-1.5,0.1-2.6c-0.5-2.1-3.6-2.8-2.8-5.1c-0.8-0.4-1.2-0.1-1.7,0.1c-0.5,0.2-1,0.2-1.5,0.1c-2.2-0.4-2.7-1.2-1.4-2.9
				c1.4-2-0.1-3.2-0.6-4.9c-1.2,1.1-1.1,2.3-1.5,3.3c-0.5,1.3,0.4,3.8-2.8,2.7c-0.1,0-0.6,0.3-0.6,0.4c0.7,1.9-1.1,2.3-2.1,3.2
				c-0.8,0.8-0.2,1.5,0.3,2.2c1.3,1.9,0.8,2.8-1.7,3.2c-0.6,0.1-1.3-0.2-1.7,0.4c-0.5,1.4,1.5,1.7,1.6,3c-3.5-0.6-4.5-1.2-4.7,2.8
				c-1.4,0.3-2.9-0.8-4.5,0.3c1.9,1,2,1,1.8,2.7c-0.1,0.8,0.3,1,0.9,1.3c1.9,1.1,2,2.7,0.5,4.1c-1.3,1.4-3.2,1.3-4.8,1.7
				c0,1.7,2.6,1.1,2.4,2.6c-0.2,1.7,1.3,1.1,2,1.5c-0.5,1.2-0.9,2.3-1.4,3.5c1.2,0.4,2.5-1.1,3,0c0.6,1.5-1.2,1.4-2.2,1.8
				c-0.4,0.1-0.8,0.2-1.1,0.3c-0.6,0.2-1.4,0.3-1.4,1c0,0.9,0.9,1,1.7,1.1c0.4,0.1,0.7,0.2,0.8,0.6c-0.7,1.4-2.4,2-3.3,3.5
				c2.7-1,4.7-0.2,6.7,1.6c-2.2,0.5-4.1,0.9-6,1.4c-1.8,0.6-1.9,1.3-0.6,2.6c0.4,0.4,1.3,0.2,1.3,1.2c-0.4,0.2-0.8,0.5-1.2,0.8
				c-0.7,0.5-1.7,1-1.2,2c0.6,1.1,1.7,0.7,2.7,0.5c0.8-0.2,1.5-1.1,2.4-0.3c0.4,2.1-0.2,3.6-2.6,3.9c-2,0.2-1.8,2.1-2.8,3
				c0.1,0,0.2,0.1,0.3,0.1c1.2,0.5,3.7-0.9,3.5,1.5c-0.1,1.7-2.3,0.9-3.5,1c-0.9,0.1-2.4-0.6-2.6,0.8c-0.1,1.1,1.3,1.4,2.3,1.6
				c1.1,0.2,2.3,0.2,3.5,0.2c1.3,0.1,2.6,0,3.9,0.1c0.8,0,1.6,0.2,1.6,1.2c0,0.9-0.7,1.3-1.5,1.4c-1,0.2-1.2,0.2-2.2,0.4
				c0,2.7-4.8,5.4-3.2,4.8c3.2-1.4,12.1-1.2,15.2-3.1c2.3-1.3,1.4,14.8,1.7,16.1c0.1,0.6,6.5,0.7,6.4-0.7c-0.2-4.7-0.7-8.5-0.9-16.7
				c0-0.7-0.4-1.5,0.4-2c0.7-0.4,1.3,0.1,1.7,0.5c1.9,1.7,4.3,2.7,6.6,3.7c2.9,1.2,6,2.3,9.4,2.6c-2.6-0.3-2.6-3.1-4.6-4.1
				c-1.9-1-1.5-1.6-2.3-1.7c-2.6-0.4-5.3-0.7-7.5-2.9c3.1-0.9,5.7,0.2,8.3,0.7c1.8,0.3,3.5,0.7,5.2-0.1c-0.7-0.3-2-0.7-2-0.8
				c0.4-2-1.1-1.9-2.4-2.1c-2.8-0.3-4.9-1.5-7-4.2c4.8,1.2,8.9,2.1,13.3,1.7c-2.4-1.7-5.3-2.8-6.7-5.2c0.9-1.3,2.4,0.2,3-1.1
				c-2.6-1.2-2.6-1.2-3.9-3.4C59.3,332.8,62,334.9,65,333.1z M32.9,315.9c-0.3,1.7-1.5,1.7-3.1,1.6
				C30.8,316.5,31.5,315.8,32.9,315.9z M29.9,302.3c0.2,0,0.4,0.2,0.6,0.3c0,0.3-0.2,0.4-0.5,0.4c-0.1,0-0.2-0.1-0.3-0.2
				C29.5,302.6,29.5,302.3,29.9,302.3z M28.7,323.7c0.9-1,0.9-1,2.4-0.6C30.3,323.3,29.5,323.5,28.7,323.7z M31.4,334.4
				c-0.1,0.3-0.4,0.6-0.8,0.4c-0.2,0-0.3-0.3-0.3-0.5c0-0.3,0.2-0.6,0.6-0.7C31.3,333.8,31.5,334.1,31.4,334.4z M31.2,323.1
				c0.6-0.5,1.2-1.5,2.1-0.4c0.7,0.7,0.3,1.4-0.6,1.7C31.5,324.8,31.2,324.2,31.2,323.1z M31.8,327.3l0-0.2l0.3,0.2L31.8,327.3z
				 M34.6,344.2c-0.2,0.6-0.6,1.1-1.4,0.9c-0.4-0.1-0.6-0.4-0.5-0.8c0.2-0.6,0.7-1,1.4-0.8C34.5,343.4,34.7,343.8,34.6,344.2z
				 M41.8,289.2c0.6,0.9,1,1.7-0.5,2.1l0,0C41.2,290.6,41.2,289.9,41.8,289.2z M40.4,297.1c0-0.1,0.2-0.2,0.3-0.2
				c0.3-0.1,0.5-0.1,0.6,0.2c-0.2,0.2-0.3,0.4-0.5,0.5C40.4,297.6,40.3,297.4,40.4,297.1z M38.8,294c0.2,0.1,0.5,0.3,0.5,0.4
				c0,0.4-0.3,0.6-0.7,0.5c-0.1,0-0.3-0.4-0.3-0.5C38.3,294.3,38.6,294.2,38.8,294z M39.3,298.9c-2.1,0.7-3.1,0.7-4.1-0.2
				C36.4,298.2,37.4,298.4,39.3,298.9z M35.8,308.7C35.8,308.7,35.8,308.6,35.8,308.7L35.8,308.7z M35.8,311.9c0-0.6,0-1.2,0.8-1.4
				c0.7-0.1,0.8,0.4,0.9,0.8c0.3,0.9-0.4,1.2-1.1,1.5C35.7,312.8,35.8,312.3,35.8,311.9z M36.7,326.4c-0.1,0.1-0.6,0-0.6-0.1
				c-0.1-0.4,0.2-0.6,0.5-0.8c0.3-0.1,0.5,0.1,0.4,0.3C37,326.1,36.9,326.3,36.7,326.4z M38.9,328.7c0-0.4,0.4-0.6,0.8-0.5
				c0.2,0.1,0.5,0.3,0.5,0.4c0.1,0.4-0.1,0.7-0.6,0.7C39.1,329.3,38.8,329.1,38.9,328.7z M39.1,342.9c0.2-0.2,0.4-0.2,0.6,0.1
				c0,0.1,0,0.2-0.1,0.3c-0.2,0.2-0.5,0.2-0.6-0.1C39,343.2,39.1,343,39.1,342.9z M40.6,350.7c-0.1,0.3-0.5,0.6-0.9,0.5
				c-1-0.4-0.5-1.2-0.5-1.8c0-0.4,0.4-0.5,0.8-0.5C40.8,349.3,40.9,349.9,40.6,350.7z M36.9,317.4c1.6-1.9,1.6-1.9,5.3,0.9
				C39.7,319.2,38.9,316.5,36.9,317.4z M42.6,311.6c-0.4,0-0.6-0.4-0.6-0.8c0-0.4,0.2-0.7,0.7-0.7c0.4,0.1,0.6,0.4,0.6,0.8
				C43.3,311.4,43,311.7,42.6,311.6z M52.3,330.3c-0.2,0-0.3-0.3-0.4-0.4c0.2-0.1,0.5-0.2,0.6-0.2c0.2,0,0.3,0.3,0.4,0.4
				C52.8,330.2,52.5,330.4,52.3,330.3z"/>
			<path class="st1" d="M58.7,301.6c-2.8-1.1-5.8-1.1-8.6-1.8c-0.1,0.1-0.3,0.3-0.4,0.4C51.9,302.5,54.8,302.9,58.7,301.6z"/>
		</g>
		<g>
			<path class="st1" d="M391.6,351.7C391.6,351.7,391.6,351.7,391.6,351.7C391.6,351.7,391.6,351.7,391.6,351.7L391.6,351.7z"/>
			<path class="st1" d="M393.8,338c-2-0.6-4.1,0.1-5.2-1.3c-2-2.4-4.8-3.5-7.2-5.3c-0.4-0.3-1.2-0.5-0.8-1.5c4.4,1.1,8.4,4,13.9,2.8
				c-2.4-1.9-5.5-1.7-6.7-4.1c0.4-1.3,1.7-0.1,2.2-1.1c-1.9-2.1-5.1-2.8-6.8-5.5c1.9-0.4,2.7,1.7,4.3,0.9c0.2-1.4-1.5-2.4-0.7-3.9
				c0.2-0.4-0.4-0.7-0.8-0.9c-2-1-3.1-3.1-5.7-4.4c2.4-0.4,4.1,0.6,6.1-0.4c-2.2-0.6-4.1-0.9-5.7-2c-1.5-0.9-1.4-1.2,0.3-2.6
				c0.1-0.1,0.2-0.2,0.3-0.3c-1-1.4,0.9-1,1-1.7c-0.4-0.1-0.8-0.3-1.2-0.4c-2.2-0.7-2.2-0.7-1.2-2.6c0.5-0.8,0.3-1.4,0.1-2.3
				c-0.4-1.9-3-2.5-2.3-4.6c-0.7-0.4-1-0.1-1.4,0.1c-0.4,0.2-0.8,0.2-1.2,0.1c-1.8-0.4-2.2-1.1-1.2-2.6c1.2-1.8-0.1-2.8-0.5-4.4
				c-1,1-0.9,2-1.3,2.9c-0.4,1.1,0.3,3.4-2.3,2.4c-0.1,0-0.5,0.3-0.5,0.3c0.6,1.7-0.9,2.1-1.8,2.9c-0.7,0.7-0.2,1.3,0.2,2
				c1.1,1.7,0.7,2.5-1.4,2.9c-0.5,0.1-1.1-0.2-1.4,0.3c-0.4,1.3,1.3,1.5,1.4,2.7c-2.9-0.5-3.7-1.1-3.9,2.5c-1.1,0.2-2.4-0.7-3.7,0.2
				c1.6,0.9,1.7,0.9,1.5,2.4c-0.1,0.7,0.2,0.9,0.8,1.2c1.6,0.9,1.6,2.4,0.4,3.7c-1.1,1.2-2.6,1.2-4,1.5c0,1.5,2.1,1,2,2.3
				c-0.2,1.5,1,1,1.6,1.3c-0.4,1-0.8,2.1-1.1,3.1c1,0.3,2.1-1,2.5,0c0.5,1.3-1,1.3-1.8,1.6c-0.3,0.1-0.6,0.2-0.9,0.3
				c-0.5,0.2-1.2,0.3-1.2,0.9c0,0.8,0.8,0.9,1.4,1c0.3,0.1,0.6,0.1,0.7,0.5c-0.6,1.3-2,1.8-2.7,3.1c2.2-0.9,3.8-0.2,5.6,1.4
				c-1.9,0.5-3.4,0.8-4.9,1.3c-1.5,0.5-1.5,1.2-0.5,2.3c0.3,0.4,1.1,0.2,1.1,1c-0.3,0.2-0.7,0.5-1,0.7c-0.6,0.4-1.4,0.9-1,1.8
				c0.5,1,1.4,0.6,2.3,0.4c0.7-0.2,1.2-1,2-0.3c0.3,1.8-0.1,3.2-2.2,3.5c-1.6,0.2-1.5,1.8-2.3,2.7c0.1,0,0.2,0.1,0.3,0.1
				c1,0.4,3.1-0.8,2.9,1.3c-0.1,1.5-1.9,0.8-2.9,0.9c-0.8,0.1-2-0.6-2.1,0.7c-0.1,1,1.1,1.2,1.9,1.4c0.9,0.2,1.9,0.2,2.9,0.2
				c1.1,0,2.1,0,3.2,0.1c0.7,0,1.3,0.2,1.3,1.1c0,0.8-0.5,1.1-1.2,1.2c-0.8,0.1-1,0.2-1.9,0.3c0,2.4-4,4.8-2.7,4.2
				c2.6-1.2,10-1.1,12.6-2.7c1.9-1.2,1.2,13.2,1.4,14.3c0.1,0.5,5.4,0.6,5.3-0.6c-0.1-4.2-0.6-7.6-0.7-14.8c0-0.6-0.4-1.3,0.3-1.8
				c0.6-0.4,1,0.1,1.4,0.4c1.6,1.5,3.5,2.4,5.5,3.3c2.4,1.1,5,2.1,7.7,2.3c-2.2-0.3-2.1-2.7-3.8-3.7c-1.5-0.9-1.2-1.4-1.9-1.5
				c-2.2-0.4-4.4-0.6-6.2-2.6c2.6-0.8,4.7,0.2,6.9,0.6c1.5,0.3,2.9,0.6,4.3-0.1c-0.6-0.3-1.6-0.6-1.6-0.7c0.3-1.8-0.9-1.7-2-1.8
				c-2.3-0.2-4.1-1.4-5.8-3.8c4,1.1,7.4,1.9,11,1.6c-2-1.5-4.3-2.5-5.6-4.7c0.7-1.2,2,0.2,2.5-0.9c-2.1-1-2.1-1-3.2-3
				C389.1,337.8,391.4,339.6,393.8,338z M367.3,322.7c-0.3,1.5-1.2,1.5-2.6,1.5C365.5,323.2,366.1,322.6,367.3,322.7z M364.8,310.6
				c0.2,0,0.3,0.2,0.5,0.2c0,0.2-0.2,0.4-0.4,0.3c-0.1,0-0.2-0.1-0.2-0.2C364.4,310.8,364.5,310.6,364.8,310.6z M363.8,329.6
				c0.7-0.9,0.7-0.9,2-0.5C365.1,329.3,364.5,329.5,363.8,329.6z M366.1,339.2c-0.1,0.3-0.3,0.5-0.7,0.4c-0.1,0-0.3-0.3-0.3-0.5
				c0-0.3,0.1-0.6,0.5-0.6C366,338.6,366.2,338.9,366.1,339.2z M365.9,329.1c0.5-0.4,1-1.3,1.8-0.4c0.6,0.7,0.3,1.2-0.5,1.5
				C366.1,330.6,365.8,330.1,365.9,329.1z M366.4,332.8l0-0.2l0.2,0.1L366.4,332.8z M368.7,347.8c-0.1,0.6-0.5,0.9-1.1,0.8
				c-0.3-0.1-0.5-0.4-0.4-0.7c0.2-0.5,0.5-0.9,1.2-0.7C368.6,347.2,368.8,347.5,368.7,347.8z M374.7,299c0.5,0.8,0.8,1.5-0.4,1.9
				l0,0C374.2,300.2,374.1,299.6,374.7,299z M373.5,306c0-0.1,0.1-0.2,0.2-0.2c0.2-0.1,0.4,0,0.5,0.2c-0.1,0.1-0.2,0.4-0.4,0.4
				C373.5,306.4,373.4,306.3,373.5,306z M372.2,303.3c0.1,0.1,0.4,0.2,0.4,0.3c0,0.4-0.3,0.5-0.6,0.5c-0.1,0-0.3-0.3-0.3-0.5
				C371.8,303.5,372,303.4,372.2,303.3z M372.6,307.6c-1.7,0.6-2.6,0.6-3.4-0.2C370.2,306.9,371,307.2,372.6,307.6z M369.7,316.3
				C369.7,316.3,369.7,316.2,369.7,316.3L369.7,316.3z M369.7,319.1c0-0.5,0-1.1,0.7-1.2c0.6-0.1,0.7,0.4,0.8,0.7
				c0.3,0.8-0.4,1.1-0.9,1.4C369.6,319.9,369.7,319.5,369.7,319.1z M370.4,332c-0.1,0.1-0.5,0-0.5-0.1c-0.1-0.3,0.1-0.5,0.4-0.7
				c0.2-0.1,0.4,0,0.4,0.3C370.7,331.7,370.6,332,370.4,332z M372.2,334.1c0-0.4,0.3-0.5,0.6-0.4c0.2,0,0.4,0.2,0.4,0.4
				c0.1,0.4-0.1,0.6-0.5,0.6C372.4,334.6,372.2,334.4,372.2,334.1z M372.4,346.8c0.2-0.2,0.4-0.1,0.5,0.1c0,0.1,0,0.2-0.1,0.3
				c-0.2,0.2-0.4,0.2-0.5-0.1C372.4,347,372.4,346.8,372.4,346.8z M373.7,353.6c-0.1,0.3-0.4,0.6-0.7,0.4c-0.8-0.3-0.4-1.1-0.4-1.6
				c0-0.3,0.3-0.5,0.7-0.4C373.8,352.4,373.9,353,373.7,353.6z M370.6,324.1c1.3-1.7,1.3-1.7,4.4,0.8
				C372.9,325.6,372.2,323.2,370.6,324.1z M375.3,318.9c-0.4,0-0.5-0.3-0.5-0.7c0-0.4,0.1-0.6,0.5-0.6c0.3,0.1,0.5,0.4,0.5,0.7
				C375.9,318.7,375.6,318.9,375.3,318.9z M383.4,335.5c-0.1,0-0.2-0.2-0.3-0.4c0.2-0.1,0.4-0.2,0.5-0.2c0.1,0,0.2,0.2,0.3,0.4
				C383.7,335.4,383.5,335.6,383.4,335.5z"/>
			<path class="st1" d="M388.6,309.9c-2.3-1-4.8-1-7.1-1.6c-0.1,0.1-0.2,0.2-0.3,0.3C383,310.8,385.4,311.2,388.6,309.9z"/>
		</g>
		<g>
			<path class="st1" d="M343.2,354.7C343.2,354.7,343.2,354.7,343.2,354.7C343.2,354.7,343.2,354.8,343.2,354.7L343.2,354.7z"/>
			<path class="st1" d="M345.1,343.2c-1.7-0.5-3.4,0.1-4.4-1.1c-1.6-2-4-2.9-6-4.5c-0.4-0.3-1-0.4-0.7-1.2c3.7,0.9,7.1,3.4,11.6,2.4
				c-2-1.6-4.6-1.4-5.6-3.4c0.3-1.1,1.4-0.1,1.9-0.9c-1.6-1.8-4.3-2.3-5.7-4.6c1.6-0.4,2.3,1.4,3.6,0.7c0.1-1.2-1.2-2-0.6-3.3
				c0.2-0.3-0.3-0.6-0.6-0.8c-1.7-0.8-2.6-2.6-4.8-3.7c2-0.4,3.5,0.5,5.1-0.3c-1.8-0.5-3.4-0.8-4.8-1.7c-1.2-0.8-1.2-1,0.2-2.2
				c0.1-0.1,0.2-0.2,0.3-0.3c-0.8-1.1,0.7-0.8,0.9-1.5c-0.4-0.1-0.7-0.2-1-0.3c-1.9-0.6-1.9-0.6-1-2.2c0.4-0.7,0.3-1.2,0.1-1.9
				c-0.4-1.6-2.5-2.1-2-3.8c-0.6-0.3-0.9-0.1-1.2,0.1c-0.3,0.2-0.7,0.2-1,0.1c-1.5-0.3-1.9-0.9-1-2.2c1-1.5-0.1-2.4-0.4-3.7
				c-0.9,0.8-0.8,1.7-1.1,2.5c-0.4,0.9,0.3,2.9-2,2c-0.1,0-0.4,0.2-0.4,0.3c0.5,1.4-0.8,1.7-1.5,2.4c-0.6,0.6-0.2,1.1,0.2,1.7
				c0.9,1.5,0.5,2.1-1.2,2.4c-0.4,0.1-0.9-0.1-1.2,0.3c-0.3,1.1,1.1,1.3,1.1,2.2c-2.4-0.4-3.1-0.9-3.3,2.1c-1,0.2-2-0.6-3.1,0.2
				c1.3,0.7,1.4,0.7,1.3,2c-0.1,0.6,0.2,0.7,0.6,1c1.3,0.8,1.4,2,0.4,3.1c-0.9,1-2.2,1-3.3,1.3c0,1.3,1.8,0.9,1.7,1.9
				c-0.1,1.3,0.9,0.8,1.4,1.1c-0.3,0.9-0.6,1.8-1,2.6c0.8,0.3,1.7-0.8,2.1,0c0.4,1.1-0.8,1.1-1.5,1.3c-0.3,0.1-0.5,0.1-0.8,0.3
				c-0.4,0.2-1,0.2-1,0.8c0,0.7,0.6,0.8,1.2,0.9c0.3,0,0.5,0.1,0.5,0.5c-0.5,1.1-1.7,1.5-2.3,2.6c1.9-0.8,3.2-0.2,4.7,1.2
				c-1.6,0.4-2.9,0.6-4.1,1.1c-1.2,0.4-1.3,1-0.4,2c0.3,0.3,0.9,0.2,0.9,0.9c-0.3,0.2-0.6,0.4-0.9,0.6c-0.5,0.4-1.2,0.8-0.8,1.5
				c0.4,0.9,1.2,0.5,1.9,0.4c0.6-0.1,1-0.8,1.7-0.2c0.3,1.5-0.1,2.7-1.8,2.9c-1.4,0.2-1.3,1.5-2,2.2c0.1,0,0.2,0.1,0.2,0.1
				c0.9,0.3,2.6-0.7,2.5,1.1c-0.1,1.3-1.6,0.6-2.5,0.8c-0.6,0.1-1.7-0.5-1.8,0.6c-0.1,0.8,0.9,1,1.6,1.2c0.8,0.2,1.6,0.1,2.4,0.2
				c0.9,0,1.8,0,2.7,0.1c0.6,0,1.1,0.2,1.1,0.9c0,0.7-0.5,0.9-1,1c-0.7,0.1-0.8,0.2-1.6,0.3c0,2-3.3,4.1-2.2,3.6
				c2.2-1,8.4-0.9,10.6-2.3c1.6-1,1,11.1,1.2,12c0.1,0.5,4.5,0.5,4.5-0.5c-0.1-3.5-0.5-6.3-0.6-12.5c0-0.5-0.3-1.1,0.3-1.5
				c0.5-0.3,0.9,0,1.2,0.3c1.3,1.3,3,2,4.6,2.8c2,0.9,4.2,1.8,6.5,2c-1.8-0.2-1.8-2.3-3.2-3.1c-1.3-0.7-1-1.2-1.6-1.3
				c-1.8-0.3-3.7-0.5-5.2-2.2c2.2-0.7,3.9,0.2,5.8,0.5c1.2,0.2,2.4,0.5,3.6-0.1c-0.5-0.2-1.4-0.5-1.4-0.6c0.3-1.5-0.7-1.4-1.7-1.5
				c-1.9-0.2-3.4-1.1-4.9-3.2c3.3,0.9,6.2,1.6,9.2,1.3c-1.7-1.3-3.6-2.1-4.7-3.9c0.6-1,1.6,0.2,2.1-0.8c-1.8-0.9-1.8-0.9-2.7-2.5
				C341.1,343,343,344.5,345.1,343.2z M322.8,330.4c-0.2,1.3-1,1.2-2.2,1.2C321.3,330.8,321.8,330.3,322.8,330.4z M320.7,320.2
				c0.1,0,0.3,0.1,0.4,0.2c0,0.2-0.1,0.3-0.3,0.3c-0.1,0-0.2-0.1-0.2-0.1C320.4,320.4,320.4,320.2,320.7,320.2z M319.9,336.2
				c0.6-0.8,0.6-0.8,1.7-0.4C321,335.9,320.4,336.1,319.9,336.2z M321.8,344.2c-0.1,0.3-0.3,0.4-0.6,0.3c-0.1,0-0.2-0.2-0.2-0.4
				c0-0.3,0.1-0.5,0.4-0.5C321.7,343.7,321.8,343.9,321.8,344.2z M321.6,335.8c0.4-0.4,0.8-1.1,1.5-0.3c0.5,0.6,0.2,1-0.4,1.2
				C321.8,337,321.5,336.5,321.6,335.8z M322,338.9l0-0.2l0.2,0.1L322,338.9z M323.9,351.5c-0.1,0.5-0.4,0.8-0.9,0.6
				c-0.3-0.1-0.4-0.3-0.4-0.6c0.1-0.5,0.5-0.7,1-0.6C323.9,350.9,324,351.2,323.9,351.5z M329,310.4c0.4,0.7,0.7,1.3-0.4,1.6l0,0
				C328.5,311.5,328.5,311,329,310.4z M328,316.3c0-0.1,0.1-0.1,0.2-0.2c0.2-0.1,0.3,0,0.4,0.2c-0.1,0.1-0.2,0.3-0.3,0.3
				C328,316.7,327.9,316.6,328,316.3z M326.9,314c0.1,0.1,0.4,0.2,0.4,0.3c0,0.3-0.2,0.4-0.5,0.4c-0.1,0-0.2-0.3-0.2-0.4
				C326.5,314.2,326.7,314.1,326.9,314z M327.2,317.7c-1.4,0.5-2.2,0.5-2.8-0.2C325.2,317.1,325.9,317.3,327.2,317.7z M324.8,325
				C324.8,325,324.8,324.9,324.8,325L324.8,325z M324.8,327.4c0-0.5,0-0.9,0.6-1c0.5-0.1,0.6,0.3,0.7,0.6c0.2,0.7-0.3,0.9-0.8,1.1
				C324.7,328.1,324.8,327.7,324.8,327.4z M325.4,338.2c-0.1,0.1-0.4,0-0.4,0c-0.1-0.3,0.1-0.4,0.4-0.6c0.2,0,0.3,0,0.3,0.2
				C325.6,338,325.5,338.1,325.4,338.2z M326.9,339.9c0-0.3,0.3-0.4,0.5-0.3c0.1,0,0.3,0.2,0.3,0.3c0.1,0.3-0.1,0.5-0.4,0.5
				C327.1,340.4,326.9,340.2,326.9,339.9z M327.1,350.6c0.1-0.1,0.3-0.1,0.4,0.1c0,0,0,0.2-0.1,0.2c-0.2,0.1-0.3,0.1-0.4-0.1
				C327,350.8,327,350.6,327.1,350.6z M328.1,356.3c-0.1,0.3-0.3,0.5-0.6,0.4c-0.7-0.3-0.3-0.9-0.4-1.4c0-0.3,0.3-0.4,0.6-0.4
				C328.3,355.3,328.3,355.8,328.1,356.3z M325.5,331.5c1.1-1.4,1.1-1.4,3.7,0.7C327.5,332.8,326.9,330.8,325.5,331.5z M329.5,327.2
				c-0.3,0-0.4-0.3-0.4-0.6c0-0.3,0.1-0.5,0.5-0.5c0.3,0.1,0.4,0.3,0.4,0.6C330,327,329.8,327.2,329.5,327.2z M336.3,341.2
				c-0.1,0-0.2-0.2-0.3-0.3c0.1,0,0.3-0.2,0.4-0.1c0.1,0,0.2,0.2,0.3,0.3C336.6,341.1,336.4,341.2,336.3,341.2z"/>
			<path class="st1" d="M340.7,319.7c-2-0.9-4-0.8-6-1.3c-0.1,0.1-0.2,0.2-0.3,0.3C335.9,320.3,337.9,320.7,340.7,319.7z"/>
		</g>
		<g>
			<path class="st1" d="M740.4,354.2C740.4,354.2,740.4,354.2,740.4,354.2C740.4,354.2,740.4,354.2,740.4,354.2L740.4,354.2z"/>
			<path class="st1" d="M742.7,343.2c-2-0.5-4.1,0.1-5.2-1c-2-1.9-4.8-2.8-7.2-4.3c-0.4-0.3-1.2-0.4-0.8-1.2
				c4.4,0.8,8.4,3.2,13.9,2.3c-2.4-1.5-5.5-1.3-6.7-3.3c0.4-1,1.7-0.1,2.2-0.9c-1.9-1.7-5.1-2.2-6.8-4.4c1.9-0.3,2.7,1.3,4.3,0.7
				c0.2-1.1-1.5-1.9-0.7-3.1c0.2-0.3-0.4-0.6-0.8-0.7c-2-0.8-3.1-2.4-5.7-3.5c2.4-0.3,4.1,0.5,6.1-0.3c-2.2-0.5-4.1-0.7-5.7-1.6
				c-1.5-0.8-1.4-1,0.3-2.1c0.1-0.1,0.2-0.2,0.3-0.3c-1-1.1,0.9-0.8,1-1.4c-0.4-0.1-0.8-0.2-1.2-0.3c-2.2-0.6-2.2-0.6-1.2-2.1
				c0.5-0.6,0.3-1.1,0.1-1.8c-0.4-1.5-3-2-2.3-3.6c-0.7-0.3-1-0.1-1.4,0.1c-0.4,0.2-0.8,0.2-1.2,0.1c-1.8-0.3-2.2-0.9-1.2-2.1
				c1.2-1.4-0.1-2.2-0.5-3.5c-1,0.8-0.9,1.6-1.3,2.3c-0.4,0.9,0.3,2.7-2.3,1.9c-0.1,0-0.5,0.2-0.5,0.3c0.6,1.4-0.9,1.6-1.8,2.3
				c-0.7,0.5-0.2,1,0.2,1.6c1.1,1.4,0.7,2-1.4,2.3c-0.5,0.1-1.1-0.1-1.4,0.3c-0.4,1,1.3,1.2,1.4,2.1c-2.9-0.4-3.7-0.9-3.9,2
				c-1.1,0.2-2.4-0.6-3.7,0.2c1.6,0.7,1.7,0.7,1.5,1.9c-0.1,0.5,0.2,0.7,0.8,0.9c1.6,0.8,1.6,1.9,0.4,2.9c-1.1,1-2.6,0.9-4,1.2
				c0,1.2,2.1,0.8,2,1.8c-0.2,1.2,1,0.8,1.6,1c-0.4,0.8-0.8,1.7-1.1,2.5c1,0.3,2.1-0.8,2.5,0c0.5,1.1-1,1-1.8,1.3
				c-0.3,0.1-0.6,0.1-0.9,0.2c-0.5,0.2-1.2,0.2-1.2,0.7c0,0.7,0.8,0.7,1.4,0.8c0.3,0,0.6,0.1,0.7,0.4c-0.6,1-2,1.4-2.7,2.5
				c2.2-0.7,3.8-0.2,5.6,1.1c-1.9,0.4-3.4,0.6-4.9,1c-1.5,0.4-1.5,0.9-0.5,1.9c0.3,0.3,1.1,0.2,1.1,0.8c-0.3,0.2-0.7,0.4-1,0.6
				c-0.6,0.4-1.4,0.7-1,1.4c0.5,0.8,1.4,0.5,2.3,0.3c0.7-0.1,1.2-0.8,2-0.2c0.3,1.5-0.1,2.6-2.2,2.8c-1.6,0.2-1.5,1.5-2.3,2.1
				c0.1,0,0.2,0.1,0.3,0.1c1,0.3,3.1-0.6,2.9,1.1c-0.1,1.2-1.9,0.6-2.9,0.7c-0.8,0.1-2-0.4-2.1,0.5c-0.1,0.8,1.1,1,1.9,1.1
				c0.9,0.1,1.9,0.1,2.9,0.2c1.1,0,2.1,0,3.2,0.1c0.7,0,1.3,0.2,1.3,0.9c0,0.6-0.5,0.9-1.2,1c-0.8,0.1-1,0.2-1.9,0.3
				c0,1.9-4,3.9-2.7,3.4c2.6-1,10-0.9,12.6-2.2c1.9-1,1.2,10.5,1.4,11.4c0.1,0.4,5.4,0.5,5.3-0.5c-0.1-3.3-0.6-6-0.7-11.8
				c0-0.5-0.4-1.1,0.3-1.4c0.6-0.3,1,0,1.4,0.3c1.6,1.2,3.5,1.9,5.5,2.6c2.4,0.9,5,1.7,7.7,1.9c-2.2-0.2-2.1-2.2-3.8-2.9
				c-1.5-0.7-1.2-1.1-1.9-1.2c-2.2-0.3-4.4-0.5-6.2-2c2.6-0.6,4.7,0.2,6.9,0.5c1.5,0.2,2.9,0.5,4.3-0.1c-0.6-0.2-1.6-0.5-1.6-0.6
				c0.3-1.4-0.9-1.4-2-1.5c-2.3-0.2-4.1-1.1-5.8-3c4,0.9,7.4,1.5,11,1.2c-2-1.2-4.3-2-5.6-3.7c0.7-0.9,2,0.2,2.5-0.7
				c-2.1-0.8-2.1-0.8-3.2-2.4C737.9,343,740.2,344.5,742.7,343.2z M716.1,331c-0.3,1.2-1.2,1.2-2.6,1.2
				C714.3,331.4,714.9,330.9,716.1,331z M713.6,321.4c0.2,0,0.3,0.1,0.5,0.2c0,0.2-0.2,0.3-0.4,0.3c-0.1,0-0.2-0.1-0.2-0.1
				C713.3,321.6,713.3,321.4,713.6,321.4z M712.7,336.6c0.7-0.7,0.8-0.7,2-0.4C714,336.3,713.3,336.4,712.7,336.6z M714.9,344.1
				c-0.1,0.2-0.3,0.4-0.7,0.3c-0.1,0-0.3-0.2-0.3-0.4c0-0.2,0.1-0.4,0.5-0.5C714.8,343.7,715,343.9,714.9,344.1z M714.7,336.2
				c0.5-0.3,1-1,1.8-0.3c0.6,0.5,0.3,1-0.5,1.2C715,337.3,714.7,336.9,714.7,336.2z M715.2,339.1l0-0.2l0.2,0.1L715.2,339.1z
				 M717.5,351.1c-0.1,0.5-0.5,0.7-1.1,0.6c-0.3-0.1-0.5-0.3-0.4-0.6c0.2-0.4,0.5-0.7,1.2-0.6C717.5,350.6,717.6,350.8,717.5,351.1z
				 M723.5,312.1c0.5,0.7,0.8,1.2-0.4,1.5l0,0C723,313.1,722.9,312.6,723.5,312.1z M722.3,317.7c0-0.1,0.1-0.1,0.2-0.2
				c0.2-0.1,0.4,0,0.5,0.2c-0.1,0.1-0.2,0.3-0.4,0.3C722.3,318,722.2,317.9,722.3,317.7z M721,315.5c0.1,0.1,0.4,0.2,0.4,0.3
				c0,0.3-0.3,0.4-0.6,0.4c-0.1,0-0.3-0.3-0.3-0.4C720.6,315.7,720.8,315.6,721,315.5z M721.4,318.9c-1.7,0.5-2.6,0.5-3.4-0.2
				C719,318.4,719.9,318.6,721.4,318.9z M718.5,325.9C718.5,325.9,718.5,325.8,718.5,325.9L718.5,325.9z M718.5,328.1
				c0-0.4,0-0.9,0.7-1c0.6-0.1,0.7,0.3,0.8,0.6c0.3,0.7-0.4,0.9-0.9,1.1C718.4,328.8,718.5,328.5,718.5,328.1z M719.3,338.5
				c-0.1,0.1-0.5,0-0.5,0c-0.1-0.3,0.1-0.4,0.4-0.5c0.2,0,0.4,0,0.4,0.2C719.5,338.2,719.4,338.4,719.3,338.5z M721.1,340.1
				c0-0.3,0.3-0.4,0.6-0.3c0.2,0,0.4,0.2,0.4,0.3c0.1,0.3-0.1,0.5-0.5,0.5C721.3,340.5,721,340.3,721.1,340.1z M721.3,350.2
				c0.2-0.1,0.4-0.1,0.5,0.1c0,0,0,0.2-0.1,0.2c-0.2,0.1-0.4,0.1-0.5-0.1C721.2,350.4,721.2,350.2,721.3,350.2z M722.5,355.7
				c-0.1,0.2-0.4,0.5-0.7,0.4c-0.8-0.3-0.4-0.9-0.4-1.3c0-0.3,0.3-0.4,0.7-0.3C722.6,354.7,722.7,355.2,722.5,355.7z M719.4,332.1
				c1.3-1.3,1.3-1.3,4.4,0.6C721.8,333.3,721.1,331.4,719.4,332.1z M724.1,328c-0.4,0-0.5-0.3-0.5-0.5c0-0.3,0.1-0.5,0.5-0.5
				c0.3,0.1,0.5,0.3,0.5,0.5C724.7,327.8,724.5,328,724.1,328z M732.2,341.3c-0.1,0-0.2-0.2-0.3-0.3c0.2,0,0.4-0.1,0.5-0.1
				c0.1,0,0.2,0.2,0.3,0.3C732.5,341.2,732.3,341.3,732.2,341.3z"/>
			<path class="st1" d="M737.4,320.8c-2.3-0.8-4.8-0.8-7.1-1.3c-0.1,0.1-0.2,0.2-0.3,0.3C731.8,321.5,734.2,321.8,737.4,320.8z"/>
		</g>
		<g>
			<path class="st1" d="M433.1,359.8C433.1,359.8,433.1,359.8,433.1,359.8C433.1,359.8,433.1,359.8,433.1,359.8L433.1,359.8z"/>
			<path class="st1" d="M435,350.7c-1.6-0.4-3.4,0.1-4.3-0.9c-1.6-1.6-4-2.3-5.9-3.5c-0.4-0.2-1-0.3-0.7-1c3.7,0.7,7,2.7,11.5,1.9
				c-2-1.2-4.5-1.1-5.6-2.7c0.3-0.8,1.4-0.1,1.9-0.7c-1.6-1.4-4.2-1.8-5.7-3.6c1.6-0.3,2.3,1.1,3.6,0.6c0.1-0.9-1.2-1.6-0.6-2.6
				c0.2-0.3-0.3-0.5-0.6-0.6c-1.7-0.6-2.5-2-4.7-2.9c2-0.3,3.4,0.4,5.1-0.3c-1.8-0.4-3.4-0.6-4.7-1.3c-1.2-0.6-1.2-0.8,0.2-1.7
				c0.1-0.1,0.2-0.2,0.3-0.2c-0.8-0.9,0.7-0.7,0.9-1.1c-0.4-0.1-0.7-0.2-1-0.3c-1.8-0.5-1.9-0.5-1-1.7c0.4-0.5,0.3-0.9,0.1-1.5
				c-0.4-1.2-2.5-1.6-1.9-3c-0.5-0.2-0.8-0.1-1.2,0.1c-0.3,0.1-0.7,0.1-1,0.1c-1.5-0.3-1.9-0.7-1-1.7c1-1.2-0.1-1.9-0.4-2.9
				c-0.8,0.7-0.8,1.4-1,1.9c-0.3,0.7,0.3,2.3-1.9,1.6c-0.1,0-0.4,0.2-0.4,0.2c0.5,1.1-0.8,1.4-1.5,1.9c-0.6,0.4-0.2,0.9,0.2,1.3
				c0.9,1.1,0.5,1.7-1.2,1.9c-0.4,0.1-0.9-0.1-1.2,0.2c-0.3,0.8,1.1,1,1.1,1.8c-2.4-0.4-3.1-0.7-3.2,1.6c-0.9,0.1-2-0.5-3.1,0.2
				c1.3,0.6,1.4,0.6,1.3,1.6c-0.1,0.5,0.2,0.6,0.6,0.8c1.3,0.6,1.3,1.6,0.4,2.4c-0.9,0.8-2.2,0.8-3.3,1c0,1,1.8,0.7,1.6,1.5
				c-0.1,1,0.9,0.6,1.4,0.9c-0.3,0.7-0.6,1.4-0.9,2.1c0.8,0.2,1.7-0.7,2,0c0.4,0.9-0.8,0.8-1.5,1.1c-0.2,0.1-0.5,0.1-0.8,0.2
				c-0.4,0.1-1,0.2-1,0.6c0,0.6,0.6,0.6,1.2,0.7c0.3,0,0.5,0.1,0.5,0.4c-0.5,0.8-1.6,1.2-2.3,2.1c1.8-0.6,3.2-0.1,4.6,0.9
				c-1.5,0.3-2.8,0.5-4.1,0.8c-1.2,0.3-1.3,0.8-0.4,1.6c0.3,0.2,0.9,0.1,0.9,0.7c-0.3,0.1-0.6,0.3-0.8,0.5c-0.5,0.3-1.2,0.6-0.8,1.2
				c0.4,0.7,1.2,0.4,1.9,0.3c0.6-0.1,1-0.7,1.7-0.2c0.3,1.2-0.1,2.1-1.8,2.3c-1.3,0.1-1.2,1.2-1.9,1.8c0.1,0,0.2,0.1,0.2,0.1
				c0.9,0.3,2.6-0.5,2.4,0.9c-0.1,1-1.6,0.5-2.4,0.6c-0.6,0.1-1.7-0.4-1.8,0.4c-0.1,0.6,0.9,0.8,1.6,0.9c0.8,0.1,1.6,0.1,2.4,0.1
				c0.9,0,1.8,0,2.7,0.1c0.5,0,1.1,0.1,1.1,0.7c0,0.5-0.5,0.7-1,0.8c-0.7,0.1-0.8,0.1-1.5,0.2c0,1.6-3.3,3.2-2.2,2.8
				c2.2-0.8,8.3-0.7,10.5-1.8c1.6-0.8,1,8.7,1.1,9.5c0.1,0.4,4.5,0.4,4.4-0.4c-0.1-2.8-0.5-5-0.6-9.8c0-0.4-0.3-0.9,0.3-1.2
				c0.5-0.2,0.9,0,1.2,0.3c1.3,1,2.9,1.6,4.5,2.2c2,0.7,4.1,1.4,6.4,1.5c-1.8-0.2-1.8-1.8-3.1-2.4c-1.3-0.6-1-0.9-1.5-1
				c-1.8-0.2-3.6-0.4-5.1-1.7c2.1-0.5,3.9,0.1,5.7,0.4c1.2,0.2,2.4,0.4,3.6-0.1c-0.5-0.2-1.4-0.4-1.3-0.5c0.3-1.2-0.7-1.1-1.7-1.2
				c-1.9-0.2-3.4-0.9-4.8-2.5c3.3,0.7,6.1,1.3,9.1,1c-1.7-1-3.6-1.7-4.6-3.1c0.6-0.8,1.6,0.1,2.1-0.6c-1.8-0.7-1.8-0.7-2.7-2
				C431,350.6,432.9,351.8,435,350.7z M413,340.6c-0.2,1-1,1-2.2,1C411.5,340.9,411.9,340.5,413,340.6z M410.9,332.6
				c0.1,0,0.3,0.1,0.4,0.2c0,0.2-0.1,0.2-0.3,0.2c-0.1,0-0.2-0.1-0.2-0.1C410.6,332.7,410.6,332.6,410.9,332.6z M410.1,345.2
				c0.6-0.6,0.6-0.6,1.6-0.3C411.2,345,410.6,345.1,410.1,345.2z M411.9,351.5c-0.1,0.2-0.3,0.3-0.5,0.3c-0.1,0-0.2-0.2-0.2-0.3
				c0-0.2,0.1-0.4,0.4-0.4C411.8,351.2,412,351.3,411.9,351.5z M411.8,344.9c0.4-0.3,0.8-0.9,1.5-0.2c0.5,0.4,0.2,0.8-0.4,1
				C412,345.9,411.7,345.5,411.8,344.9z M412.2,347.3l0-0.1l0.2,0.1L412.2,347.3z M414.1,357.3c-0.1,0.4-0.4,0.6-0.9,0.5
				c-0.3-0.1-0.4-0.2-0.3-0.5c0.1-0.4,0.5-0.6,1-0.5C414.1,356.8,414.2,357,414.1,357.3z M419.1,324.9c0.4,0.5,0.7,1-0.4,1.2l0,0
				C418.6,325.7,418.6,325.3,419.1,324.9z M418.1,329.5c0-0.1,0.1-0.1,0.2-0.1c0.2-0.1,0.3,0,0.4,0.1c-0.1,0.1-0.2,0.2-0.3,0.3
				C418.1,329.8,418,329.7,418.1,329.5z M417,327.7c0.1,0.1,0.3,0.1,0.4,0.2c0,0.2-0.2,0.4-0.5,0.3c-0.1,0-0.2-0.2-0.2-0.3
				C416.7,327.9,416.9,327.8,417,327.7z M417.3,330.6c-1.4,0.4-2.1,0.4-2.8-0.1C415.4,330.2,416,330.3,417.3,330.6z M415,336.3
				C415,336.3,414.9,336.3,415,336.3L415,336.3z M414.9,338.2c0-0.4,0-0.7,0.6-0.8c0.5-0.1,0.5,0.2,0.6,0.5c0.2,0.5-0.3,0.7-0.7,0.9
				C414.9,338.8,414.9,338.5,414.9,338.2z M415.6,346.8c-0.1,0-0.4,0-0.4,0c-0.1-0.2,0.1-0.4,0.3-0.4c0.2,0,0.3,0,0.3,0.2
				C415.8,346.6,415.7,346.7,415.6,346.8z M417,348.1c0-0.2,0.3-0.3,0.5-0.3c0.1,0,0.3,0.2,0.3,0.3c0.1,0.2-0.1,0.4-0.4,0.4
				C417.2,348.5,417,348.4,417,348.1z M417.2,356.5c0.1-0.1,0.3-0.1,0.4,0c0,0,0,0.1-0.1,0.2c-0.2,0.1-0.3,0.1-0.4,0
				C417.1,356.7,417.2,356.6,417.2,356.5z M418.2,361.1c-0.1,0.2-0.3,0.4-0.6,0.3c-0.7-0.2-0.3-0.7-0.4-1.1c0-0.2,0.3-0.3,0.6-0.3
				C418.4,360.3,418.4,360.7,418.2,361.1z M415.7,341.5c1.1-1.1,1.1-1.1,3.6,0.5C417.6,342.5,417,341,415.7,341.5z M419.6,338.1
				c-0.3,0-0.4-0.2-0.4-0.4c0-0.2,0.1-0.4,0.4-0.4c0.3,0.1,0.4,0.2,0.4,0.5C420.1,337.9,419.9,338.1,419.6,338.1z M426.3,349.1
				c-0.1,0-0.2-0.2-0.3-0.3c0.1,0,0.3-0.1,0.4-0.1c0.1,0,0.2,0.2,0.3,0.3C426.6,349.1,426.4,349.1,426.3,349.1z"/>
			<path class="st1" d="M430.6,332.2c-1.9-0.7-4-0.7-5.9-1c-0.1,0.1-0.2,0.2-0.3,0.2C426,332.7,428,333,430.6,332.2z"/>
		</g>
		<g>
			<path class="st1" d="M258.2,346.3C258.2,346.3,258.2,346.3,258.2,346.3C258.2,346.3,258.2,346.3,258.2,346.3L258.2,346.3z"/>
			<path class="st1" d="M256.2,336.3c1.8-0.4,3.7,0.1,4.8-1c1.8-1.8,4.4-2.6,6.6-3.9c0.4-0.3,1.1-0.4,0.7-1.1
				c-4,0.8-7.7,2.9-12.7,2.1c2.2-1.4,5-1.2,6.2-3c-0.4-0.9-1.6-0.1-2.1-0.8c1.7-1.6,4.7-2,6.3-4c-1.7-0.3-2.5,1.2-4,0.6
				c-0.2-1,1.4-1.8,0.7-2.9c-0.2-0.3,0.4-0.5,0.7-0.7c1.9-0.7,2.8-2.2,5.2-3.2c-2.2-0.3-3.8,0.5-5.6-0.3c2-0.4,3.7-0.7,5.2-1.5
				c1.3-0.7,1.3-0.9-0.3-1.9c-0.1-0.1-0.2-0.2-0.3-0.3c0.9-1-0.8-0.7-1-1.3c0.4-0.1,0.8-0.2,1.1-0.3c2-0.5,2.1-0.5,1.1-1.9
				c-0.4-0.6-0.3-1-0.1-1.7c0.4-1.4,2.7-1.8,2.1-3.3c0.6-0.3,0.9-0.1,1.3,0.1c0.4,0.1,0.7,0.1,1.1,0.1c1.6-0.3,2-0.8,1.1-1.9
				c-1.1-1.3,0.1-2.1,0.4-3.2c0.9,0.7,0.9,1.5,1.2,2.1c0.4,0.8-0.3,2.5,2.1,1.8c0.1,0,0.4,0.2,0.4,0.2c-0.6,1.3,0.8,1.5,1.6,2.1
				c0.6,0.5,0.2,1-0.2,1.5c-1,1.3-0.6,1.9,1.3,2.1c0.5,0.1,1-0.1,1.3,0.3c0.4,0.9-1.2,1.1-1.2,2c2.6-0.4,3.4-0.8,3.6,1.8
				c1,0.2,2.2-0.5,3.4,0.2c-1.5,0.6-1.5,0.7-1.4,1.7c0.1,0.5-0.2,0.6-0.7,0.9c-1.4,0.7-1.5,1.7-0.4,2.7c1,0.9,2.4,0.8,3.7,1.1
				c0,1.1-2,0.7-1.8,1.7c0.2,1.1-0.9,0.7-1.5,1c0.4,0.8,0.7,1.5,1,2.3c-0.9,0.3-1.9-0.7-2.3,0c-0.5,1,0.9,0.9,1.7,1.2
				c0.3,0.1,0.6,0.1,0.8,0.2c0.4,0.2,1.1,0.2,1.1,0.7c0,0.6-0.7,0.7-1.3,0.7c-0.3,0-0.6,0.1-0.6,0.4c0.5,0.9,1.8,1.3,2.5,2.3
				c-2-0.7-3.5-0.1-5.1,1c1.7,0.3,3.1,0.6,4.5,0.9c1.3,0.4,1.4,0.8,0.5,1.7c-0.3,0.3-1,0.2-1,0.8c0.3,0.2,0.6,0.3,0.9,0.5
				c0.6,0.3,1.3,0.7,0.9,1.3c-0.5,0.7-1.3,0.5-2.1,0.3c-0.6-0.1-1.1-0.7-1.9-0.2c-0.3,1.3,0.1,2.4,2,2.6c1.5,0.2,1.4,1.3,2.1,2
				c-0.1,0-0.2,0.1-0.3,0.1c-0.9,0.3-2.8-0.6-2.7,1c0.1,1.1,1.7,0.6,2.7,0.7c0.7,0.1,1.8-0.4,1.9,0.5c0.1,0.7-1,0.9-1.8,1
				c-0.9,0.1-1.8,0.1-2.6,0.2c-1,0-2,0-3,0.1c-0.6,0-1.2,0.2-1.2,0.8c0,0.6,0.5,0.8,1.1,0.9c0.8,0.1,0.9,0.2,1.7,0.2
				c0,1.7,3.6,3.5,2.4,3.1c-2.4-0.9-9.2-0.8-11.6-2c-1.8-0.9-1.1,9.7-1.3,10.5c-0.1,0.4-4.9,0.4-4.9-0.4c0.1-3,0.5-5.5,0.7-10.9
				c0-0.4,0.3-1-0.3-1.3c-0.5-0.3-1,0-1.3,0.3c-1.4,1.1-3.3,1.8-5,2.4c-2.2,0.8-4.5,1.5-7.1,1.7c2-0.2,1.9-2,3.5-2.7
				c1.4-0.6,1.1-1,1.7-1.1c2-0.3,4-0.5,5.7-1.9c-2.4-0.6-4.3,0.1-6.3,0.4c-1.4,0.2-2.7,0.4-4-0.1c0.5-0.2,1.5-0.4,1.5-0.5
				c-0.3-1.3,0.8-1.3,1.9-1.3c2.1-0.2,3.7-1,5.3-2.7c-3.7,0.8-6.8,1.4-10.1,1.1c1.8-1.1,4-1.8,5.1-3.4c-0.7-0.9-1.8,0.2-2.3-0.7
				c2-0.8,2-0.8,2.9-2.2C260.5,336.1,258.4,337.4,256.2,336.3z M280.5,325c0.3,1.1,1.1,1.1,2.4,1.1C282.2,325.4,281.6,325,280.5,325
				z M282.8,316.2c-0.1,0-0.3,0.1-0.4,0.2c0,0.2,0.1,0.3,0.4,0.2c0.1,0,0.2-0.1,0.2-0.1C283.2,316.3,283.1,316.2,282.8,316.2z
				 M283.7,330.1c-0.7-0.7-0.7-0.7-1.8-0.4C282.5,329.9,283.1,330,283.7,330.1z M281.7,337.1c0.1,0.2,0.3,0.4,0.6,0.3
				c0.1,0,0.2-0.2,0.2-0.3c0-0.2-0.1-0.4-0.5-0.4C281.8,336.7,281.6,336.9,281.7,337.1z M281.9,329.8c-0.5-0.3-0.9-0.9-1.6-0.3
				c-0.5,0.5-0.2,0.9,0.4,1.1C281.6,330.9,281.9,330.4,281.9,329.8z M281.4,332.4l0-0.2l-0.2,0.1L281.4,332.4z M279.3,343.5
				c0.1,0.4,0.4,0.7,1,0.6c0.3-0.1,0.4-0.3,0.4-0.5c-0.2-0.4-0.5-0.6-1.1-0.5C279.3,343,279.2,343.2,279.3,343.5z M273.8,307.7
				c-0.4,0.6-0.7,1.1,0.4,1.4l0,0C274.2,308.5,274.3,308.1,273.8,307.7z M274.8,312.8c0-0.1-0.1-0.1-0.2-0.2c-0.2-0.1-0.4,0-0.4,0.2
				c0.1,0.1,0.2,0.3,0.4,0.3C274.8,313.1,274.9,313,274.8,312.8z M276.1,310.8c-0.1,0.1-0.4,0.2-0.4,0.3c0,0.3,0.3,0.4,0.6,0.3
				c0.1,0,0.3-0.2,0.2-0.3C276.4,310.9,276.2,310.9,276.1,310.8z M275.7,313.9c1.6,0.5,2.4,0.4,3.1-0.1
				C277.9,313.5,277.1,313.7,275.7,313.9z M278.3,320.3C278.3,320.3,278.3,320.3,278.3,320.3L278.3,320.3z M278.3,322.4
				c0-0.4,0-0.8-0.6-0.9c-0.5-0.1-0.6,0.3-0.7,0.5c-0.2,0.6,0.3,0.8,0.8,1C278.4,323,278.3,322.7,278.3,322.4z M277.6,331.9
				c0.1,0,0.4,0,0.4,0c0.1-0.2-0.1-0.4-0.4-0.5c-0.2,0-0.4,0-0.3,0.2C277.4,331.7,277.5,331.8,277.6,331.9z M276,333.4
				c0-0.3-0.3-0.4-0.6-0.3c-0.2,0-0.3,0.2-0.4,0.3c-0.1,0.3,0.1,0.4,0.5,0.5C275.8,333.8,276,333.6,276,333.4z M275.8,342.7
				c-0.2-0.1-0.3-0.1-0.5,0.1c0,0,0,0.1,0.1,0.2c0.2,0.1,0.3,0.1,0.5-0.1C275.9,342.8,275.9,342.7,275.8,342.7z M274.7,347.7
				c0.1,0.2,0.4,0.4,0.7,0.3c0.7-0.2,0.4-0.8,0.4-1.2c0-0.3-0.3-0.4-0.6-0.3C274.5,346.8,274.5,347.2,274.7,347.7z M277.5,326
				c-1.2-1.2-1.2-1.2-4,0.6C275.4,327.2,276,325.4,277.5,326z M273.2,322.3c0.3,0,0.5-0.3,0.5-0.5c0-0.3-0.1-0.4-0.5-0.4
				c-0.3,0.1-0.5,0.3-0.5,0.5C272.7,322.1,272.9,322.3,273.2,322.3z M265.8,334.5c0.1,0,0.2-0.2,0.3-0.3c-0.2,0-0.3-0.1-0.5-0.1
				c-0.1,0-0.2,0.2-0.3,0.3C265.5,334.4,265.6,334.5,265.8,334.5z"/>
			<path class="st1" d="M261,315.7c2.1-0.7,4.4-0.7,6.6-1.2c0.1,0.1,0.2,0.2,0.3,0.3C266.1,316.3,263.9,316.6,261,315.7z"/>
		</g>
	</g>
	<g class="st0">
		<g>
			<path class="st1" d="M721.7,287.1c-1.2-1.1-2.4-2.3-3.3-3.8c-4.5-7.6-10.1-13.8-15.9-19.8c-3.5-3.6-6.6-7.6-9.6-11.8
				c-3-4.2-5.9-8.5-9-12.5c-2.5-3.2-5.7-5.7-8.1-9c-5-7.1-11.1-12.9-16.2-19.9c-0.7-1-1.5-1.8-2.3-2.7c-3.1-3.5-6.5-6.7-9.6-10.5
				c-1.9-2.3-4-4.3-6.5-5.7c-4.4-2.5-8.6-5.4-12.2-9.3c-1.7-1.7-3.7-2.7-5.8-3.3c-3.2-0.9-5.9-2.7-8.2-5.4c-3.7-4.3-7.7-8-11.5-12.2
				c-6.6-7.3-13.8-13.5-21.7-18.6c-7.7-4.9-14.7-10.7-21.2-17.6c-2-2.1-4.2-3.4-7-3.3c-0.9,0-1.9-0.1-2.8-0.5c-4.3-2-8.4-4.2-11.9-8
				c-3.2-3.5-6.4-6.9-9.9-10c-2.5-2.3-5.1-2.2-7.8-0.5c-2.8,1.7-5.2,4.2-7.6,6.6c-4,4.2-7.9,8.5-12.1,12.3
				c-5.9,5.3-11.9,10.4-18,15.4c-7.5,6.2-15.2,11.8-23,17.3c-1.7,1.2-1.7,1.2-3-0.8c-1.3-2-2.5-4.3-4-6.1
				c-4.1-4.8-8.4-9.4-12.6-14.1c-4-4.5-7.6-9.5-11.9-13.6c-3.3-3.2-6.1-6.9-8.5-11.2c-2.2-3.8-4.4-7.7-6.8-11.2
				c-3-4.3-5.4-8.9-7.1-14.1c-1.1-3.4-3.1-5.7-5.7-7.5c-2.7-1.8-5.6-3-8-5.3c-5.1-4.8-9.8-10.1-14.2-15.9c-2.9-3.8-5.3-8.3-8.4-11.8
				c-8-9-15.3-18.9-23.4-27.7c-3.5-3.8-6.9-8-11.3-10.4c-3.9-2.2-7.7-2.1-11,1.5c-0.8,0.9-1.6,1.8-2.3,2.7
				c-5.6,7.3-10.6,15.3-15.9,22.9c-9,12.8-18,25.5-27,38.3c-0.6,0.9-1.3,1.4-2.2,1.6c-2.2,0.5-3.9,2-5.4,4.1
				c-3.3,4.7-6.5,9.5-9.9,14.1c-2.8,3.8-5.2,8-7.2,12.5c-1.3,2.8-2.5,5.8-4.2,8.2c-3.4,4.7-6.5,9.8-9.8,14.6c-0.7,1-1.5,1.9-2.3,2.7
				c-0.6,0.6-1.2,0.8-2,0.1c-4.9-4.5-10.4-8.1-14.8-13.5c-3.1-3.8-7.1-6.6-10.1-10.7c-1.5-2.1-3-4.3-4.6-6.3c-1.9-2.5-4.1-3.6-7-0.5
				c-0.3,0.3-0.5,0.6-0.8,0.9c-2.6,2.7-4.5,6.2-6.6,9.4c-3.2,4.9-6.1,10.2-9.5,14.9c-8.8,12.3-17.6,24.6-26.8,36.4
				c-8,10.2-15.6,20.8-24.7,29.8c-2,2-2.7,2.2-4.9,0.2c-4.1-3.9-8.8-6.8-13.5-9.2c-3.3-1.7-6.9-1.3-10.1,0.9c-1.3,0.9-2.2,2.5-3.1,4
				c-8.4,14.3-17.7,27.8-27.7,40.6c-10.9,13.8-21.8,27.5-34.5,39c-1.5,1.3-3.3,2.3-4.2,4.4l0.1,0.1c3.4-2.4,6.5-5.4,9.7-8
				c7.1-5.8,14.3-11.5,21.1-17.9c1.1-1.1,2.3-2.1,3.4-3.1c0.7-0.6,1.4-0.7,1.7,0.5c0.9,3.8,1.3,7.6-0.5,11.2
				c-4.1,8.2-7.2,17.2-12.1,24.8c-0.4,0.6-0.7,1.3-1,1.9c-0.2,0.5-0.4,1-0.5,1.5c-0.2,1.1,0.2,1.9,1,2.4c0.7,0.4,1.2-0.3,1.6-0.9
				c0.7-1.1,1.2-2.4,2-3.4c5.3-6.8,8.9-14.9,13.2-22.5c1.7-3,3.1-6.1,4.3-9.4c2-5.8,4.4-11.4,7.1-16.8c0.8-1.7,1.8-3.3,2.2-5.2
				c0.8-3.3,2.8-5.1,5.1-6.7c0.7-0.5,1.4-1,2.1-1.5c1.6-1.3,3.3-1.4,5.1-0.5c1.7,0.9,3.5,1.6,5.2,2.5c2.1,1,2.3,1.6,0.9,3.8
				c-1.5,2.4-2.3,5-2.4,8.1c-0.1,3-0.9,5.8-2.8,7.9c-3.5,3.8-6.5,8.1-9.8,12.1c-12.8,15.4-24.5,31.9-36,48.6
				c-3.5,5-6.5,10.2-10.8,14.4c-3.8,3.7-7.2,8.1-10.7,12.3c-0.6,0.7-1.1,1.4-1.5,2.2c-0.4,0.7,0,1.5,0.4,2.1
				c0.3,0.4,0.7,0.8,1.2,0.4c1.8-1.6,4.1-2,5.8-3.9c1.4-1.5,2.9-3,4.3-4.5c4.7-5.2,10.2-9.2,15.7-13.1c5-3.5,10.4-5.9,15.6-8.7
				c4.3-2.3,8.7-4.7,13.1-6.6c10.6-4.5,20.9-9.6,30.6-16.4c2.5-1.8,4.6-4.1,6.1-7.1c1.4-2.9,2.4-6.1,3.2-9.3c1-4.1,2.4-7.9,5.3-10.6
				c1.3-1.2,2.5-2.8,3.8-4.2c2.9-3.4,4.9-7.3,5-12.5c0-1.9,0.2-3.9,0.9-5.7c1.3-3.4,2.4-3.9,4.9-1.9c4.2,3.3,8.7,6.1,13,9.1
				c0.6,0.4,1.3,1,2,0.3c0.7-0.7,0.7-1.7,0.4-2.7c-0.6-1.8-1.2-3.6-2.2-5.2c-0.7-1.1-1.1-2.3-0.7-3.7c1-3.7,0.5-7.3-0.9-10.7
				c-0.1-0.3-0.2-0.9-0.2-1.2c0.2-3.4-1.4-6-2.6-8.8c-0.3-0.7-0.6-1.3-0.8-2c-0.6-1.5-0.5-2.5,0.6-3.6c1.6-1.5,3.2-3.2,4.6-5
				c3.2-3.9,6.8-6.9,10.8-9.5c1.8-1.1,1.9-1,2.7,1.3c1.7,4.6,3.3,9.1,5.3,13.5c0.6,1.3,1.3,3.1,2.7,2.5c1.4-0.6,1.5-2.5,1.5-4.2
				c0-0.6,0-1.3-0.2-1.8c-0.6-1.8-1.2-4.7-1.6-6.6c-1.4-6.7-3-13.4-0.6-20.4c0.1-0.4,0.1-0.9,0.1-1.3c0.4-2.9,0.8-5.8,1.4-8.6
				c0.6-3.1,1.1-6.4,2.4-9.3c4.4-10.1,10.2-19.1,15.7-28.3c0.8-1.4,1.8-1.5,2.8-0.7c1.8,1.4,3.4,3.1,3.9,5.9
				c0.2,1.2,0.2,2.4,0.6,3.5c1.1,2.9,0.2,4.9-1.6,6.8c-1.2,1.3-2.6,2.4-3.2,4.3c-0.5,1.7-1.4,3-2.2,4.4c-2.8,4.8-5.9,9.3-8,14.6
				c-0.9,2.3-2,4.3-3.2,6.3c-1.9,3.1-3.5,6.6-5.2,9.9c-0.4,0.7-0.8,1.8-0.1,2.3c0.9,0.7,1.1-0.6,1.5-1.2c0.1-0.1,0.2-0.2,0.2-0.4
				c3.2-7.8,8.3-13.6,13.6-19.3c3.9-4.2,8.3-7.6,11.7-12.5c0.8-1.1,1.8-1.2,2.9-0.9c3.2,0.8,6.4,1.6,9.8,1.5c4.3-0.2,5,1.6,2.6,6
				c-2.2,4.1-4.6,8-6.9,12c-7.1,12.3-14.8,24-22.9,35.2c-7.2,9.8-14.7,19.2-21.9,29.1c-5.6,7.7-11.1,15.6-16.6,23.5
				c-9,12.7-17.9,25.4-26.5,38.4c-3.8,5.7-7.4,11.7-11.8,16.8c-6.3,7.3-12.7,14.3-19.3,21.2c-5.2,5.4-41.3,26.9-47.2,31
				c-0.6,0.4-1.4,1-1.5,2.3c0.8-0.2,1.4-0.3,2-0.5c2.7-0.9,5.3-2,8-2.7c2.5-0.7,35.9-17.8,38.1-19.3c5.5-3.8,10.8-8.1,16.5-11.6
				c3.5-2.1,6.7-4.5,10-7c4.8-3.7,9.3-8.1,14.3-11.5c4.6-3.1,9-6.8,13.1-10.7c7.1-6.7,14.6-12.5,21.5-19.4
				c3.8-3.8,7.9-7.1,11.3-11.5c1.1-1.4,2.1-3,3.3-4.2c3.3-3.4,6.6-6.5,10.5-8.9c1.8-1.1,3.5-2.3,4.8-4.1c0.6-0.8,1.2-1.1,2.1-1
				c1.7,0.1,3.3-0.5,5-1c5.7-1.7,11-4.7,16-8.2c3.1-2.2,6.3-4.2,9-7.1c2.2-2.4,4.6-4.6,7.1-6.4c4.8-3.3,8.4-7.9,9.6-14.8
				c1-5.6,2.5-11,4.2-16.4c0.8-2.6,1-5.6,2.2-8c1.5-3.1,2.6-6.4,3.6-9.8c3.1-11.1,11.9-17.1,21.3-17.3c2-0.1,3.9-0.4,5.9-0.7
				c1.8-0.3,3.5-0.4,5.1,1.2c1.1,1.1,1.6,0.8,2-1c0.5-2,0.8-4,0.7-6.1c-0.3-4-0.9-7.9-2.3-11.6c-0.4-1-0.7-2-0.4-3.1
				c1.4-6.3,2-12.7,3.1-19.1c0.6-3.3,1.4-6.5,2.2-9.7c0.5-2,1.1-2.1,2.6-1.1c0.3,0.2,0.6,0.5,0.9,0.7c3.2,2.2,5.7,5.6,8.8,7.9
				c3.9,3,7.6,6,10.4,10.6c0.2,0.3,0.4,0.5,0.6,0.7c0.4,0.3,0.8,0.6,1.2,0.2c0.5-0.4,0.8-1,0.6-1.7c-0.2-0.7-0.5-1.4-0.8-2
				c-0.7-1.3-1.6-2.5-2-3.8c-0.7-2.6-2.2-4.4-3.7-6.2c-2-2.2-3.9-4.5-5.4-7.2c-2.2-4.1-4.4-8.1-6.4-12.4c-0.7-1.5-0.8-2.8-0.3-4.3
				c1.4-3.9,2.3-8,3.1-12.1c0.7-3.3,1.3-6.6,1.9-9.9c0.1-0.8,0.9-1.4,1.7-1.3c1.9,0.2,3.6,0.7,4.9,2.4c3.5,4.7,7.2,9.4,9.5,15.2
				c0.7,1.8,1.9,3.3,3.2,4.7c4.1,4.3,8.4,8.4,11.1,14.2c0.1,0.3,0.2,0.6,0.4,0.8c0.4,0.6,0.9,1.3,1.6,0.9c0.8-0.5,0.3-1.3,0.1-2
				c-2.3-6.3-5.6-11.6-9.9-16c-2.2-2.2-3.8-4.8-5-7.9c-1.8-4.7-4.1-9.1-6.4-13.5c-0.6-1.1-1.3-2.1-2.1-2.9c-2-1.7-3.1-4.2-4.4-6.5
				c-1.8-3.2-1.9-6.4-0.6-9.8c0.3-0.8,0.5-1.6,0.8-2.4c2.4-5.7,5.4-11,8.6-16.1c1.4-2.2,2.9-4.4,4.8-6.1c1.7-1.7,3.7-2.1,5.8-1.9
				c1.1,0.1,2,0.7,2.4,2.2c0.9,3.9,2.6,7.1,5.4,9.4c1.7,1.4,2.4,3.5,2.4,5.9c0.1,2.3-0.2,4.5-1.4,6.5c-1.2,1.9-2.1,4-2.9,6.2
				c-0.3,1-0.9,2.1,0,3.5c1.9-2.6,3.7-5,5.3-7.5c2.6-4.1,2.5-3.8,5.4-0.6c2.7,2.9,5.1,6,7.9,8.8c3.2,3.2,5.1,7.8,8.4,10.8
				c1.4,1.3,1.4,3,0.2,4.5c-0.9,1.2-1.8,2.5-2.3,4c-1.2,3.8-3.2,7-5.7,9.7c-0.5,0.6-1,1.3-1.5,1.9c-0.5,0.6-0.7,1.2-0.2,2
				c0.5,0.8,1.1,0.8,1.6,0.1c3-3.9,7.4-6,9.4-11.3c0.8-2.2,3.1-3.8,4.9-2.2c3.4,3.2,7.4,5.3,11.1,8c1.5,1.1,2.4,2.8,3.1,5.2
				c-3.2-0.4-5.8,0.6-7.8,3.1c-4.2,5.3-9.1,9.9-12.5,16c-0.5,0.9-1.2,1.7-1.7,2.5c-3.5,5.3-7.4,9.9-12.3,13.4
				c-4.3,3.1-8.6,6.2-12.5,10.1c-1.9,1.9-3.5,4.4-5.7,5.9c-0.9,0.6-1,1.7-0.9,2.9c0.1,2,0.9,3.7,1.8,5.3c1.1,1.9,1.4,3.9-0.1,5.9
				c-2.3-1.5-4.5-3.1-6.8-4.6c-2.9-1.8-5.5-1.5-7.7,0.9c-3,3.3-6.2,6.2-9,9.7c-2.9,3.7-5.9,7.6-10.1,9.4c-1.1,0.5-2.2,1.5-3.1,2.5
				c-5.1,5-10.2,9.9-15.2,15c-2.7,2.8-5.4,5.3-8.3,7.7c-4.5,3.7-8,8.3-10.4,14.2c-0.4,1.1-0.9,2.1-1.5,3
				c-4.7,6.9-9.6,13.5-15.7,18.6c-5.8,4.8-10.7,10.9-16.2,16.1c-2.7,2.6-5.5,5.2-8.1,8.1c-2.5,2.9-5,5.9-7.8,8.5
				c-7.1,6.6-14,13.6-20.9,20.4c-4.4,4.4-14.9,25.5-19.4,29.8c-5.6,5.3-21.8,12.5-27.5,17.8c-6.2,5.8-23.9,14.3-44.3,23.1
				c-4.9,2.1-7.9,7.1-11.7,11c0.7,0.4,49.1-22.2,49.7-22.3c5.5-1.2-36.8,20.1-31.4,18.7c2.9-0.8,5.9-1.1,8.6-2.3
				c4.5-2.1,9-4.1,13.6-6.2c2.8-1.3,11.5,3.5,13.1-0.1c0.2-0.5,11.9-4.5,17.6-10.2c5.6-5.6,27.7-7.6,34-12.2
				c6.6-4.8,17.1-24.9,24.6-27.3c3.5-1.1,8.9-8.1,12.4-8.6c6.8-0.9,13.4-2.5,20.1-4c2.5-0.6,5.1-0.9,7.6-1.6c4-1.1,8.1-1.6,12.2-1.4
				c2,0.1,2.2,0.3,2.2,2.8c0.1,3.2-0.3,6.5,0,9.8c0.1,1.8,0.6,3.4,1.4,4.8c1.5,2.7,2.6,2.6,3.9-0.1c1.2-2.7,1.8-5.6,2.6-8.5
				c1.5-5.9,3-11.8,5.5-17.3c2.2-4.8,4.6-9.6,5.7-15c0.3-1.5,1-1.6,2-1.2c2.8,1.1,5.6,2.1,8.4,3.3c1.9,0.8,3.7,1.6,5.5,2.6
				c4.8,2.5,8.2,7.3,11.8,11.6c3.9,4.7,7.6,9.8,12.1,13.7c4.3,3.7,8.5,7.6,12.5,11.7c3,3,6.1,5.7,9.1,8.6c0.6,0.5,1.2,1.2,1.9,0.5
				c0.7-0.8,0.4-1.9-0.1-2.7c-0.6-1-1.4-2-2.1-3c-4.6-6-9.2-11.9-13.2-18.4c-5-8.1-10.9-15.2-16.4-22.8
				c-5.2-7.2-10.3-14.4-15.5-21.6c-1-1.3-1.2-2.4-0.3-3.9c0.8-1.3,1.2-2.8,1.5-4.5c0.8-4.1,1.5-8.2,2.5-12.3c1.1-4.7,2-9.4,4.1-13.7
				c1.4-2.9,1.3-2.9-0.6-5.5c-0.9-1.2-1.8-2.4-2.6-3.7c-0.3-0.4-0.6-0.9-0.2-1.5c0.3-0.5,0.8-0.5,1.3-0.4c0.8,0.1,1.5,0.5,1.9,1.2
				c3.6,5.6,7.7,10.7,11.7,15.9c4.8,6.2,10.4,10.9,16.5,15c4.1,2.8,8,5.7,10.7,10.6c0.7,1.3,1.7,2.5,2.7,3.6c0.4,0.6,1,1,1.7,0.6
				c0.7-0.5,0.6-1.3,0.5-2.1c-0.2-0.9-0.5-1.9-0.8-2.7c-2.6-6.3-5.3-12.5-8.7-18.3c-2.4-4.2-4.8-8.4-6.6-13
				c-1.7-4.3-3.7-8.4-6.2-12.2c-3.1-4.8-6-9.8-8.9-14.7c-1.8-3-3.2-6.3-3.7-10c-0.3-2.5-0.4-5,0.5-7.4c0.9-2.5,2.8-2.9,4.3-1
				c1.7,2.2,3.6,4.2,5.5,6.2c10,10.4,18.5,22.5,26.5,35.3c11.3,18.1,23,35.7,36,52c3.7,4.7,7.3,9.5,11.1,14.1
				c3.3,4.1,6.8,8,10.1,12.1c4.6,5.6,9.3,11.1,14.1,16.5c3.8,4.4,8,8.3,12,12.5c1.5,1.6,2.7,3.5,4.5,4.6c2.4,1.5,4.3,3.8,6.3,6.1
				c0.7,0.8,1.3,1.8,2.1,2.5c5.8,4.9,10.9,10.8,17,15.4c0.4,0.3,0.7,0.7,1.4,0.1c-0.6-1.1-1.4-2.1-2.3-3c-2.2-2.4-4.5-4.7-6.6-7.2
				c-1.3-1.5-1.1-1.7,0.1-3.4c0.9-1.2,1.8-0.7,2.7-0.3c1.4,0.7,2.7,1.6,4.1,2.4c1.8,1,3.7,1.8,5.5-0.1c0.6-0.6,1.1-0.4,1.8-0.1
				c2.9,1.5,5.8,2.8,8.7,4.4c7.3,4,15,6.4,23,7.7c5.7,1,11.3,2.1,16.8,4.3c2.5,1,5,1.8,7.5,2.7c0.5,0.2,1.1,0.3,1.4-0.4
				c0.2-0.6-0.2-1-0.5-1.4c-0.3-0.4-0.6-0.8-1-1.1c-3.4-3-6.9-5.8-10.8-7.9c-2.1-1.2-4.5-1.4-6.5-3c-5.5-4.5-11.5-8-16.9-12.6
				c-4.8-4.1-9.9-7.4-14.8-11.2c-6.3-5-10.5-11.7-12.3-20.6c-0.2-1.1-0.1-2.2,0.4-3.1c0.7-1.5,1.4-3.1,2.6-4.3
				c5-5.3,8.9-11.8,12.3-18.7c0.8-1.7,1.9-2.2,3.3-2c2.1,0.3,3.7,1.6,5,3.5c3.2,4.4,6.6,8.5,9.4,13.3c0.3,0.5,0.6,1,1,1.5
				c0.4,0.5,0.9,0.8,1.4,0.5c0.7-0.4,0.7-1.3,0.5-2c-0.4-1.4-1.1-2.7-1.8-4c-2.7-4.9-5.8-9.4-7.4-15c-0.8-2.6-1.7-5.3-2.6-7.8
				c-1-2.6-2-5.1-2.7-7.8c-0.7-2.5-0.6-4.7,1.2-6.8c2.5-2.9,4.7-6.3,6.5-9.9c1.2-2.4,2.9-4.1,4.8-5.5c3-2.2,5.4-5,7.3-8.5
				c2.4-4.2,5.2-5,8.7-2.4c7,5.3,14,10.5,20.9,16c6.6,5.3,13.4,10,20.1,15.1c3.6,2.8,7.5,5,11.1,7.9c5,4.1,10.4,7.3,15.8,10.4
				c4.4,2.5,8.8,4.8,13,7.7c4.6,3.2,9.4,5.8,14.3,8.2c5.5,2.6,10.8,5.9,16,9.1c3.3,2,4.6,6.8,3.2,10.9c-0.8,2.6-2.2,4.7-4,6.5
				c-4.5,4.4-9.5,8-15.1,9.6c-5.7,1.7-10.7,4.6-15.7,8.2c-1.4,1-2.6,2.2-3.2,4.2c-0.4,1.7-1.5,2.9-2.7,4c-0.8,0.8-1.7,1.6-2.5,2.4
				l-33.8,25c7.7-1,64.1-22.7,98.2,4.5c5,4-30.5-41.8-24.7-44.7c4.8-2.4,9.4-4.4,14.5-2c0.4,0.2,1.2,0.5,1.7,0.7
				c4.2,1.4,24.8,26,28.9,27.4c1.4,0.5,2.8,1.2,4.2,0.8c1.5-0.4,2.8,0.3,4.1,0.9c4,1.8,7.3,5,11.2,7c1.9,0.9,3.8,2.4,6,2.2
				c-0.9-1.3-2.1-2.3-3.3-3.2c-1.2-0.9-2.7-1.4-3.4-3c-1-2.5-2.9-4.1-4.4-6c-5-6.1-27.4-34.1-33.4-38.6c-7.4-5.6-13.6-13-20.8-18.9
				c-2.8-2.3-5.3-5.1-8.3-7c-4.3-2.7-7.9-6.3-11.1-10.6c-3.8-5-7.3-10.4-10.9-15.6c-3.2-4.6-5.7-9.7-8.1-14.9c-0.7-1.5-1-3-0.4-4.9
				c0.9-2.7,1.4-5.6,1.6-8.5c0.2-2.5,0.6-4.9,0.8-7.4c0.4-5.5,2.9-9.1,6.8-11.6c1.9-1.2,3.7-1.3,5.6-0.1c1.4,0.9,2.9,1.6,4.5,1.9
				c2,0.3,3.7,1.4,5.2,3.2c1.8,2.3,4,3.5,6.7,3.6c3.1,0.2,5.8,1.5,7.7,4.6c0.5,0.8,1.1,1.4,1.8,1.9c6.1,4.8,11.9,10.3,18,15.3
				c6.7,5.5,13.1,11.4,18.4,18.8c4.9,6.9,10.2,13.3,16.1,18.9c2.6,2.5,4.9,5.4,7.2,8.3c3.3,4.2,7.5,7,11,10.9c1.7,1.9,3,4.3,5,5.8
				c0.1-0.1,0.2-0.2,0.3-0.3C725.5,291.9,723.9,289.2,721.7,287.1z M138.6,217.1c-1.5,1.2-3,2.5-4.5,3.6c-3.8,2.9-6.3,7.3-9.4,11.1
				c-5.2,6.3-10.2,12.8-16,18.3c-5,4.6-9.8,9.3-14.9,13.9c-0.5,0.5-1.1,0.9-1.7,0.3c-0.7-0.7-0.4-1.7,0.1-2.3
				c1.8-2.1,3.6-4.3,5.6-6.1c4.8-4.5,8.5-10.2,12.5-15.6c1.7-2.4,3.4-4.7,5.3-6.9c3.5-4,6.5-8.6,9.8-12.9c2.6-3.5,4.3-7.7,6.3-11.7
				c0.5-1.1,0.8-2.6,2.2-2.3c0.9,0.3,0.9,1.7,0,3.7c-0.4,0.9-0.9,1.7-1.2,2.5c-0.6,1.6-0.3,2.2,1.4,2.1c0.4-0.1,1.1-0.3,1.8-0.5
				c0.6-0.1,1.2-0.2,1.9-0.2c0.7,0,1.3,0.3,1.5,1.1C139.5,216.1,139.1,216.7,138.6,217.1z M204.6,227.2c-0.4,3.7-2.8,6-6,6
				c-1.8,0-2.3-0.8-1.7-3c0.4-1.4,0.2-3,1-4.3c1.8-2.9,4.7-3,6.6-0.3C204.8,226.1,204.7,226.6,204.6,227.2z M232.2,206.7
				c-0.4,1-1.1,0.3-1.6,0.3c-0.7,0-1.3-0.2-2-0.5c-2.2-1.2-2.9-1-4.5,0.9c-2.7,3.3-5.6,6.4-9,8.7c-1.9,1.3-4,2.3-5.5,4.4
				c-0.5,0.8-1.5,0.9-2.2,0.4c-0.7-0.5-0.5-1.6-0.2-2.4c0.6-1.4,1.3-2.7,0.6-4.5c-0.3-0.6,0.4-1.6,0.8-2.3c2.7-4.7,5.1-9.7,8.9-13.3
				c0.4-0.4,0.7-1,1-1.5c1.6-4,4-7.4,5.8-11.3c0.3-0.8,0.8-1.4,1.2-2.1c0.4-0.7,1.1-0.8,1.7-0.5c0.8,0.3,0.8,1.1,0.7,1.9
				c-0.2,2.3-0.9,4.4-1.3,6.6c-0.7,3.9-0.4,7.4,2.5,10.1c1,0.9,2.1,1.6,2.8,3C232.2,205.2,232.4,205.9,232.2,206.7z M291.4,75.9
				c-0.1,0.4-0.2,1-0.3,1.6c-1.3,5.9-2.5,11.7-3,17.8c-0.6,7.8-1.9,15.6-2.5,23.5c-0.3,3.5-1,7.1,0.3,10.6c0.1,0.2,0.1,0.4,0.1,0.6
				c0,0.8,0.2,1.8-0.7,2.3c-0.8,0.4-1.3-0.3-1.8-1c-0.9-1.3-1.3-2.8-1.9-4.3c-0.2-0.6-0.4-1.2-0.6-1.8c-0.9-2.2-1-2.2-2.8-1
				c-1.2,0.8-2.3,1.6-3.6,2.2c-1.2,0.5-2,1.7-2.7,3c-2,3.5-4.2,6.5-7.3,8.9c-2.8,2.1-5,5.2-7.8,7.4c-0.7,0.5-1.4,1.1-2,1.7
				c-0.4,0.4-0.8,0.5-1.2,0.1c-0.4-0.4-0.4-0.9-0.4-1.5c0.1-0.7,0.4-1.1,0.8-1.7c6.9-9.8,13.4-20,19.9-30.3
				c3.3-5.3,5.4-11.5,7.5-17.6c1.3-3.9,2.8-7.7,4.3-11.6c0.3-0.8,0.6-1.6,1.1-2.2c1.6-1.7,2.1-3.9,2.2-6.4c0-0.3,0.1-0.6,0.1-1
				c0.2-0.8,0.3-1.8,1.3-1.6C291.5,73.8,291.4,74.8,291.4,75.9z M265,265.4c-2.6,0.4-5.1,0.9-7.7,1.1c-6.1,0.5-11.8,2.5-17.1,6
				c-3.8,2.5-7.9,4.1-12,5.7c-3.3,1.3-6.6,2.8-9.2,5.7c-0.3,0.4-0.7,0.7-1.1,0.9c-0.7,0.5-1.4,0.6-1.9-0.2c-0.5-0.8-0.3-1.6,0.1-2.4
				c0.9-1.4,2.1-2.4,3.2-3.4c3.3-2.8,6.6-5.6,10-8.1c3.8-2.7,7.7-5.1,11.5-7.6c4.6-3.1,9-6.6,13-10.8c0.9-1,1.4-1.3,2.8-0.2
				c3.1,2.6,5.5,6.2,9,8c0.9,0.5,1.4,1.3,1.4,2.2C267,264.3,266.4,265.2,265,265.4z M299.7,208.3c-0.8,2.3-1.6,4.5-2.2,6.9
				c-1,4.4-0.8,8.8-0.2,13.2c0.1,1.1,0.3,2.1,0.1,3.2c-0.2,1-0.8,2-1.7,1.7c-2.2-0.6-3.6,1.2-5,2.5c-2.1,1.9-4.1,4.1-6.9,4.6
				c-1.3,0.3-2.5,1.6-3.7,2.5c-0.6,0.5-1.2,1-1.9,0.1c-0.6-0.7-0.7-1.4-0.4-2.3c0.7-2.2,1.9-3.9,3.1-5.7c1-1.7,2.5-3.1,3.4-5.5
				c-1.5-0.3-3.1-0.1-3.4-2c-0.3-1.8,0.9-3,2-3.9c3.6-3.2,6.5-7.1,9.3-11.1c1.6-2.3,3.6-4.1,5.5-6.1c0.5-0.5,1-1,1.7-0.5
				C300.1,206.6,300,207.5,299.7,208.3z M352.9,299.9c0.2,0.1,0.4,0.4,0.5,0.5c0,0.3-0.1,0.5-0.4,0.4c-0.3-0.1-0.5-0.2-0.5-0.6
				C352.6,300.1,352.8,299.9,352.9,299.9z M361.6,236l-0.1,0.1l0-0.2L361.6,236z M355.9,144.8c-0.1-0.2-0.3-0.3-0.4-0.4
				c-0.9-2.6-2.5-4.2-4.5-5.6c-1.2-0.8-1-2.1,0.2-3.1c1.3-1.1,2.8-1.9,4.2-2.8c3.5-2.1,6.6-4.4,9.2-8.1c1.6-2.4,3.7-4.3,5.6-6.5
				c0.4-0.5,0.9-0.8,1.4-0.6c0.5,0.2,0.5,0.8,0.6,1.3c0,0.8-0.2,1.5-0.7,2.1c-4.6,6.6-7.4,14.4-10.2,22.2
				C359.6,148.4,359.1,148.6,355.9,144.8z M388,191.5c-1.7-0.9-2.2-2.2-2.4-3.7c-0.7-5-3.1-8.1-6.9-9.7c-1-0.4-1.7-1.3-2.5-1.9
				c-1.6-1.4-1.6-2.7,0-4c1.3-1.1,2.7-2.2,4.2-2.9c3-1.4,5.2-4.1,7.4-6.7c0.6-0.7,1.1-1.4,1.8-2c0.7-0.6,1.6-0.7,2.3-0.1
				c0.8,0.6,0.7,1.7,0.4,2.6c-0.6,2.1-1.5,4.2-2,6.4c-1.3,5.9-2.1,12-2.8,18.1C387.5,188.7,388,189.8,388,191.5z M477.7,259.7
				c-0.6,1.1-1.1,2.2-1.8,3.2c-4.5,7-5.3,14.8-4.2,23.3c0.5,3.5,1.3,6.9,2.2,10.3c0.3,1.1,0.8,2.2,0.2,3.8c-1.8-2-2.4-4.4-3.2-6.6
				c-1.3-3.5-2.6-7.1-3.9-10.7c-1.2-3.1-3-4.2-5.3-2.6c-2.8,1.9-5.6,0.7-8.4,0.7c-0.6,0-1.3-0.4-1.2-1.3c0-0.8,0.7-1,1.2-1
				c5.7-0.2,9.4-4.8,13.1-9.1c2.4-2.8,4.5-5.8,6.7-8.9c0.9-1.2,2-2.1,3-3.2c0.5-0.6,1.2-1.1,1.9-0.4
				C478.5,258.1,478.1,259,477.7,259.7z M610.6,191.8c-1.3,3.4-2.9,6.4-4.9,9.2c-4.4,6.1-9,12.1-12.9,18.7c-2.2,3.7-4.5,7.3-7,10.7
				c-0.9,1.2-1.9,2-3.2,2.1c-0.2,0-0.4,0-0.5,0.1c-3.7,1.4-6.9,0.3-10.1-2.4c-6.3-5.3-12.7-10.6-18.7-16.4
				c-4.8-4.6-9.5-9.2-14.3-13.7c-1.2-1.1-2-2.5-2.7-3.9c-1.3-2.6-2.7-5.1-4.9-6.9c-2.1-1.7-4.4-1.7-6.2,0.4c-2,2.3-4.2,3.9-6.5,5.7
				c-3.3,2.6-6.1,6-9.1,9.2c-7.1,7.7-14.9,14.1-23.3,19.6c-8.6,5.6-16,13-22.6,21.7c-1.1,1.5-2.4,2.6-4.1,2.9
				c-1,0.1-1.8,0.8-2.5,1.7c-5.7,7.9-13,13.2-21.1,16.6c-1.6,0.7-2.9,2.4-4.6,2.5c-1.8,0.1-2.9-1.9-4.5-2.8c-2.3-1.3-4.6-2-7-1
				c-1.4,0.6-2.2-0.2-3-1.3c-4.1-5.7-8.1-11.6-10.9-18.4c-3-7.1-6.1-14.2-9.1-21.3c-0.2-0.5-0.5-1-0.6-1.5c-0.2-4.1-2.4-6.8-4-10
				c-0.4-0.8-1.3-1.6-1-3.4c3.2,3.1,5.6,6.3,8.1,9.6c3.6,4.9,7.3,9.8,10.1,15.5c1.3,2.6,3,4.9,4.8,6.9c3,3.2,5.5,6.8,8.3,10.2
				c1.6,1.9,3.4,3.5,5.2,5.2c0.6,0.5,1.2,0.8,2.1,0.8c0.3-2.3-1.1-3.9-1.8-5.6c-0.8-2.1-2-4.1-3.4-5.9c-0.8-1-1.5-2.1-2-3.4
				c-1.7-4.6-4.4-8.4-7.2-12.1c-0.6-0.9-1.3-1.8-1.8-2.6c0.1-0.5,0.3-0.8,0.6-0.8c4.3,0.8,8.2-1.2,12-2.9c2.4-1.1,4.7-1.2,7.1-0.1
				c1.6,0.7,3.2,1.4,4.8,2.1c0.8,0.4,1.7,0.7,2.6,0.8c0.7,0,1.2-0.4,1.4-1.2c0.2-0.9,0.2-1.7-0.5-2.3c-0.4-0.3-0.8-0.5-1.2-0.7
				c-3.1-1.2-5.9-3.2-8.7-5.1c-2.8-1.9-5.4-1.9-8.1,0.3c-2,1.7-4.2,2.6-6.8,2.8c-3.7,0.2-6.4-2-7.9-6.2c-1.9-5.2-2.7-10.7-3.2-16.3
				c-0.3-3.4-0.9-6.9-1.4-10.2c-0.5-3.4,0.2-6.4,0.8-9.5c0.5-2.4,1.5-4.6,2.2-7c0.4-1.4,1.2-2,2.5-2c1.5,0,2.8,0.6,4,1.6
				c2.9,2.4,5.4,5.4,7.8,8.5c4,5,8.6,8.6,13.9,11.3c5.3,2.7,10.4,5.8,15.2,9.8c3.8,3.1,7.9,5.5,11.9,8.1c3,2,6.1,3.7,9.1,5.6
				c2.1,1.4,4.5,2.1,6.7,3.2c0.3,0.2,0.7,0.3,1.1-0.2c0-1.3-0.9-1.9-1.6-2.6c-1.6-1.4-3.2-2.7-5-3.8c-5-3.2-9.3-7.7-14.1-11.3
				c-8.8-6.7-16.8-14.7-25.4-21.7c-3.6-2.9-6.5-6.8-9.3-10.7c-3.9-5.5-8.5-10.2-12.4-15.7c-1.5-2.1-3.7-3.4-6.2-3.5
				c-1.5-0.1-3-0.4-4.5-1c-3.5-1.2-6.7-0.9-9.6,2.1c-5.7,5.8-11.8,10.9-18,15.9c-1,0.8-2,1.5-2.9,2.3c-2.3,2.1-4.6,1-6.9,0.2
				c-0.7-0.2-1.5-1-0.9-2.2c0.5-1,0.5-2.9,2.2-1.8c1.2,0.7,1.9,0,2.3-1.2c0.9-2.4,2.5-4.1,3.9-6c2.4-3,4.1-6.9,4.7-11.1
				c0.3-2.2,0.9-4.2,1.6-6.1c1.5-3.9,3.2-7.8,4.7-11.7c2-4.9,3-10.2,4.1-15.4c0.6-2.9,2.1-5.2,3.9-7.2c0.8-0.9,1.6-1.3,2.7-0.8
				c1,0.4,2.1,0.8,3.1,0.8c4.3,0.2,6.6,3.5,8.3,7.6c0.8,1.8,1.3,3.8,1.8,5.7c0.9,3.2,2.5,5.4,4.9,7c3.2,2.1,6.5,4.2,9.7,6.3
				c1.4,0.9,2.5,2.1,3.5,3.5c2.1,3,4.5,5.5,7.5,7.3c5.3,3.2,10.2,7.3,15.2,11c1.6,1.2,3.3,2.3,4.9,3.3c1.2,0.7,2.3,1.6,3.4,2.7
				c2.4,2.4,2.5,4,0.2,6.6c-3,3.5-5.9,7.3-9.2,10.5c-0.7,0.6-2,1.5-1.3,2.8c0.7,1.2,1.8,0.2,2.7-0.3c2.9-1.8,5.8-3.5,8.4-5.7
				c2.4-2,3.5-1.7,5.9,0.4c7.7,6.8,15.7,13.2,24,18.9c0.5,0.4,1.1,0.6,1.7,0.9c4.5,1.7,8.9,4,12.9,7.2c1,0.8,2.2,2.1,3.4,0.6
				c1.2-1.5,0.3-3-0.3-4.5c-0.9-2.2-2.4-3.8-3.7-5.5c-2.5-3.3-4.8-6.8-6-11c-0.9-3.2-1.5-6.5-2.3-9.7c-0.5-2.1-1-4.1-1.5-6.2
				c-0.5-2-0.2-2.7,1.4-3.5c1.4-0.7,2.9-1.1,4.5-0.8c2,0.4,3.9,0,5.9-0.4c2.2-0.5,2.7-1.3,2.7-3.9c0-1.7-0.1-3.5-0.5-5.1
				c-0.9-3.3-0.3-6.2,1.3-8.9c1.6-2.7,2.6-5.8,2.3-9.1c-0.4-4.3,1.1-7.7,3.4-10.5c3.3-4.1,6.8-8,10.3-11.8c2.1-2.3,2.8-2.2,4.7,0.4
				c2.1,2.9,4.1,6,5.8,9.4c2.1,4.4,5.3,6.6,9.4,7.2c3.1,0.5,5.9,1.5,8.4,4c1.1,1.2,2.6,1.4,4,1.7c2.9,0.7,5.5,1.8,7.6,4.4
				c2.2,2.7,4.9,4.7,7.5,6.8c4.2,3.3,7.9,7.5,11.9,11.1c4.2,3.7,7.9,8.1,12.1,11.8c2.8,2.5,5.8,4.2,8.9,5.9c1.8,1,3.7,1.8,5.3,3.1
				C610.6,179.3,613.1,185.3,610.6,191.8z"/>
			<path class="st1" d="M618.7,302.3c1.6,1.2,3.4,1.7,5.2,2c-0.8-0.8-1.7-1.5-2.6-2.1c-3.5-2.4-6.9-5.1-10.5-7.1
				c-3.7-2-7.1-4.6-10.2-7.7c-1.7-1.7-3.5-3.1-5.4-4.1c-5.8-3-11.1-6.9-16-11.8c-3-2.9-6-5.9-9.5-8c-4.2-2.5-8.5-4.7-12.4-7.7
				c-4.5-3.3-9.3-6.1-12.8-11.1c-2.1-2.9-4.8-4.9-7.8-6.2c-1.6-0.7-2.9-0.9-4.5,0.4c-4.2,3.5-8.2,7.3-12.7,10.2
				c-0.5,0.3-0.9,0.8-1.2,1.3c-0.7,1.2-0.3,2.3,0.9,2.6c0.7,0.1,1.4,0,2.1-0.3c1-0.4,2-1,3-1.3c1.2-0.4,2.5-1,3.5,0.4
				c0.8,1.1,1.9,1.6,3,2c1.3,0.5,2.7,0.8,3.8,1.7c3.5,3,7.4,5.2,10.5,9c2.8,3.4,6.2,5.9,8.7,9.6c1.3,1.9,1.4,2.2,0.4,4.3
				c-1.6,3.2-3.4,6.2-5.7,8.6c-4.8,5.3-9.5,10.5-15.1,14.5c-1.3,0.9-2.5,2.1-3.5,3.5c-0.7,0.9-0.5,1.7,0.2,2.6
				c0.7,0.9,1.4,0.7,2.2,0.2c1.9-1.2,3.8-2.5,5.7-3.7c4-2.5,8.3-4.2,12.7-5c0.7-0.1,1.6-0.6,2,0.3c0.5,0.9-0.1,1.9-0.6,2.6
				c-1.2,1.7-2.3,3.7-3.7,5.1c-3.3,3.2-5.4,7.8-8.6,11.1c-0.4,0.4-0.7,1-1,1.5c-0.3,0.9,0.1,1.7,0.6,2.3c0.6,0.6,0.9,0,1.3-0.4
				c1.9-1.6,3.9-3.2,5.5-5.1c1-1.2,2.2-2.1,3.5-3c3.2-2.3,6.4-4.8,8.8-8.4c0.3-0.5,0.6-1.1,1.5-0.9c0.5,1.4,0.2,2.7-0.4,4.1
				c-2.3,5-5.3,9.5-8.3,14c-0.5,0.7-1.1,1.1-1.7,1.5c-3.2,2.2-6.3,4.5-9.5,6.7c-0.9,0.6-1.6,1.4-1.4,2.8c0.5,2.7,2.7,4.8,5.1,4.9
				c1.9,0.1,3.4-1.2,4.9-2.4c3.4-3,6.7-6.1,10-9.2c3.8-3.5,8-6.2,11.6-9.9c0.8-0.8,1.9-1.2,2.7-0.2c1.6,2.1,3.8,2.8,5.7,4.3
				c3,2.4,6.4,3.9,8.9,7.2c1.5,1.9,3.1,3.6,4.9,5c0.4,0.3,0.8,1,1.4,0.6c0.7-0.5,0.5-1.4,0.3-2c-0.6-2.1-1.5-3.9-2.5-5.7
				c-1.2-2.2-2.6-4.1-3.5-6.5c-2.1-6.2-4.5-12.2-7.1-18.1c-0.6-1.4-0.9-2.8-0.9-4.3c-0.1-3.5-0.2-6.9-0.3-10.4c-0.2-3.1-1-4-3.5-4.1
				c-1.1,0-2.3,0-3.4,0.1c2.9-3.1,6.3-3.6,9.6-1.5c4.2,2.7,8.5,5.1,12.4,8.4c1.2,1,2.4,2.1,3.8,2.3c4.1,0.8,7.4,3.8,11.2,5.4
				C613,298.4,615.9,300.2,618.7,302.3z M541.3,256.6c-0.9-1.1-1.7-2.5-2.7-3.6c-0.4-0.4-1.1-0.9-1.1-1.4c0.1-2.9-2.4-3.9-3-6.2
				c-0.2-0.9-1-1.2-1.7-1.2c-0.5,0-1.1,0.1-1.6,0.1c-0.4,0-1,0.1-1.2-0.4c-0.3-0.7,0.2-1.2,0.6-1.6c2.6-2.8,5.4-2.4,7.5,1
				c0.3,0.4,0.5,0.9,0.7,1.4c1.7,4.9,4.1,9.3,6.8,13.5c1,1.5,2.1,2.9,2,5.3C545.5,261.2,543.3,259,541.3,256.6z M572.8,282.6
				c-0.1,0.1-0.1,0.2-0.2,0.3C572.5,282.5,572.7,282.6,572.8,282.6z"/>
			<path class="st1" d="M505,287.9c3.2,2.2,7,2.6,10.1,5.3c1.1,1,2.5,1.2,3.8,1.5c0.5,0.1,1.1,0.2,1.4-0.6c0.1-0.6-0.2-1-0.5-1.4
				c-0.5-0.5-1.1-0.8-1.4-1.4c-1.4-3-3.7-4.6-6.1-6.2c-2.4-1.5-4.6-3.4-6.1-6.1c-0.9-1.5-1.9-2.9-3.2-3.9c-2.1-1.6-4.4-0.8-5.2,1.9
				c-0.6,2-1.6,3.5-2.9,4.9c-1,1-2.1,1.6-3.1,2.5c-1.4,1.2-2.3,2.9-2.2,4.9c0.2,4.5,1.9,8.3,5.1,10.3c1.7,1.1,3.5,2.2,4.9,3.6
				c2.4,2.3,5.4,3.3,7.7,5.7c1.4,1.4,2.9,2.4,4.5,3.6c1.8,1.3,3.9,1.7,5.6,3.2c2.9,2.4,5.8,4.7,8.1,7.9c0.7,1,1.4,2.2,2.7,2.2
				c0.3-0.4,0.3-0.7,0.2-1c-1.9-4.3-4.3-8.3-7-11.8c-3.3-4.2-7.4-7.3-10.8-11.6c-2.3-2.9-4.3-6-6.1-9.4c-0.5-1-0.7-2-0.6-3.1
				C503.7,287.9,504.3,287.4,505,287.9z"/>
			<path class="st1" d="M626.8,239c-0.3,0.9,0.5,1.5,1.1,1.9c0.5,0.4,1.1,0.6,1.7,1c2.7,2,5.6,3.8,7.1,7.5c1.6,3.7,2.3,7.7,3.1,11.7
				c0.2,0.9,0.2,1.9,0.5,2.8c0.3,0.9,0.9,0.9,1.5,0.3c0.6-0.6,0.7-1.5,0.9-2.3c0.5-1.6,1-3.2,1.9-4.6c1.8-2.7,2.4-2.8,4.6-0.8
				c3.2,2.9,6.6,5.6,9.9,8.4c5.9,5,12.1,9.3,17.8,14.5c1.7,1.5,3.4,3,5.7,3.5c-0.1-0.4,0-0.6-0.1-0.7c-4.3-3.8-7.9-8.5-11.7-12.8
				c-4.1-4.5-8.7-8.3-12.5-13.2c-2.9-3.7-5.7-7.5-9-10.6c-2.2-2.1-4.4-3.9-7.4-4.2c-2.9-0.3-5.8-1-8.8-1.4c-1.5-0.2-3-0.4-4.4-1.1
				C628.1,238.4,627.2,238,626.8,239z"/>
			<path class="st1" d="M428.6,317.8c-3.6-4.2-7.2-8.4-11.5-11.7c-0.5-0.4-0.9-0.7-1.2-1.2c-1.4-2.3-3.3-4-5.2-5.6
				c-2-1.7-4-3.3-5.7-5.4c-2.5-3-4.7-2.6-6.6,1c-2,3.8-4.8,6.5-8.1,8.3c-2.7,1.5-4.4,4.4-6.9,5.9c-0.3,0.2-0.5,0.7-0.2,1.1
				c0.2,0.4,0.6,0.4,1,0.2c0.6-0.3,1.2-0.6,1.7-0.9c3-1.6,5.9-3.5,9.4-2.7c0.2,0.1,0.5-0.2,0.7-0.3c2-1.5,4.2-1.8,6.4-1.9
				c2.8-0.1,5.7-0.2,8.1,1.6c4.1,3,8.2,6.2,12.2,9.5c3.9,3.2,7.7,6.7,12,9.2C433.1,322,430.6,320.2,428.6,317.8z"/>
			<path class="st1" d="M346.5,254.9c-3.1-3.4-6.2-6.8-8-11.6c-0.6-1.6-1.3-3.1-2.1-4.5c-0.8-1.3-2.2-1.6-2.7-0.3
				c-0.9,2.4-2.3,1.9-3.8,1.7c-0.8-0.1-1.6-0.2-2.4-0.3c-1.2-0.1-1.5,0-1.6,0.6c-0.2,0.8,0.1,1.5,0.6,2c0.4,0.5,0.8,0.9,1.2,1.3
				c4,3.8,8.2,7.2,11.4,12.2c0.8,1.2,1.8,2.2,3.2,1.8c0.4-0.1,1-0.1,1.1,0.6c0.1,1.4,1.1,1.6,1.9,2.1c3.1,1.9,6.4,2.9,9.6,4.2
				c0.7,0.3,1.6,0.2,2.4,0.2c0.6,0,1.1-0.1,1.3-0.8c0.2-0.7-0.1-1.2-0.5-1.7c-1.4-1.7-3-2.9-4.9-3.8
				C350.8,257.3,348.2,256.8,346.5,254.9z"/>
			<path class="st1" d="M268.6,191.6c1.8-2.9,3.5-6,5.8-8.4c3.4-3.6,6.6-7.6,10.6-10.3c2.2-1.5,4.2-3.6,6.3-5.5
				c0.4-0.4,0.8-1,0.6-1.7c-0.2-0.8-0.8-0.8-1.6-0.7c-0.5,0-1.3,0-2.1,0.5c-2.7,1.6-5.6,1.9-8.6,2.1c-2.3,0.2-4.3,1.4-5.5,4
				c-1.1,2.5-2.5,4.7-3.7,7.2c-1.8,3.7-2.8,7.7-3.9,11.7c-0.2,0.9-0.3,1.8,0.6,2.2C267.9,193.1,268.2,192.2,268.6,191.6z"/>
			<path class="st1" d="M305.2,151.6c1,0.7,1.5-0.7,2.1-1.4c0.3-0.4,0.5-0.9,0.8-1.3c2.2-3.7,4.9-6.9,8.2-9.1c0.5-0.3,0.9-0.7,1-1.3
				c0-0.7-0.4-1-0.7-1.4c-2.2-4.1-4.5-8-6.3-12.4c-0.3-0.7-0.6-1.3-0.9-2c-0.5-1.2-1.4-1.7-2.5-1.4c-1.1,0.3-1.3,1.3-1.4,2.5
				c-0.1,2.1-0.2,4.1,0.1,6.1c0.3,1.8,0.5,3.7,0.3,5.5c-0.4,4.6-1.1,9.2-0.9,13.9C305.3,150.1,304.4,151.1,305.2,151.6z"/>
			<path class="st1" d="M581.3,262.3c0.9,0.7,1.9,1.4,2.9,1.7c4,1.1,7.3,4,10.8,6.3c4.9,3.3,9.7,7,14.6,10.2
				c4.1,2.6,8.5,4.6,12.7,6.8c1.5,0.8,2.9,1.6,4.4,2.4c0.4,0.2,0.9,0.2,1.2-0.4c0.2-0.4,0-0.8-0.3-1.2c-0.3-0.3-0.5-0.6-0.8-0.9
				c-3.6-3.5-7.4-6.4-11.7-8.5c-3.2-1.6-6.6-2.7-9.7-4.9c-1.7-1.2-3.3-2.6-5.1-3.6c-2.9-1.5-5.6-3.4-8.2-5.5c-1.2-1-2.5-1.6-4-1.8
				c-3-0.5-5.8-2.1-8.4-4.1c-2.8-2.2-5.8-4.2-9.1-6.4c0,1.8,0.7,2.3,1.4,2.8C575.3,257.7,578.3,260,581.3,262.3z"/>
			<path class="st1" d="M390.9,280.9c0.6,0.3,1.2,0.2,1.6-0.6c0.4-0.6,0.2-1.2-0.1-1.8c-2.6-4.2-5.1-8.4-7.6-12.5
				c-1-1.6-2.3-2.7-3.6-3.9c-1.6-1.4-3.3-1.7-5-0.6c-1.1,0.7-2.3,1-3.6,1.1c-1,0.1-2,0.3-2.8,0.9c-1.9,1.2-4,1.9-6.1,2.2
				c-1.1,0.1-2.6,0.5-2.4,1.9c0.3,2,1.9,1,2.9,0.8c2.7-0.5,5.4-1.5,8-1.6c1.4-0.2,2.4,0.1,3.3,1.3c0.7,0.8,1.5,1.7,2.4,2.1
				c4.2,2.2,7.4,6,11,9.2C389.4,280,390.1,280.5,390.9,280.9z"/>
			<path class="st1" d="M700.9,278.8c-1.8-1.8-3.8-3.3-5.5-5.1c-2.9-3.1-6.2-5.5-10-6.6c-0.7-0.2-1.3-0.7-1.9-1.1
				c-3-1.8-5.7-4.3-8.9-5.9c-0.6-0.3-1.3-0.7-1.7,0c-0.7,0.9,0.1,1.6,0.6,2.2c1.6,1.6,3.2,3.1,4.7,4.8c1.5,1.6,3.2,2.8,5,3.8
				c2,1.1,4,1.9,6,3c1.9,1.1,4,1.9,5.7,3.5c5.7,5.3,11.4,10.8,17.2,16.1c1.7,1.6,3.4,3.4,5.8,4.4c-0.2-1.2-0.7-1.8-1.1-2.4
				C712.1,288.8,706.2,284.2,700.9,278.8z"/>
			<path class="st1" d="M637.9,223.7c5.9,2.8,11.3,6.4,16.1,11.4c1.3,1.3,2.5,2.8,3.8,4.1c0.6,0.6,1.3,1.2,2,1.6c0.6,0.3,1-0.2,1-1
				c-0.1-0.8-0.6-1.4-1.1-1.8c-2.8-2.4-5-5.5-7.3-8.6c-0.7-0.9-1.4-1.7-2.2-2.3c-2.6-1.8-5.1-4-8.4-3.7c-0.5,0-1-0.4-1.5-0.6
				c-2.7-1.3-5.2-2.9-7.3-5.3c-0.4-0.4-0.8-0.6-1.2-0.2c-0.4,0.5-0.2,1,0.2,1.4C633.9,220.5,635.6,222.6,637.9,223.7z"/>
			<path class="st1" d="M354.1,82.2c0.3-0.4,0.1-0.9-0.2-1.1c-1.2-1-2.4-2.2-3.9-2.6c-2.8-0.8-5.4-2-7.9-3.9c-2-1.5-3.9-3-5.6-4.9
				c-0.5-0.6-1.2-1.1-1.9-0.7c-0.7,0.3-0.8,1.1-0.8,2c0.1,1.2,0.4,2.5,1.2,3.4c1.6,1.9,3.2,3.7,3.7,6.5c0.1,0.7,0.7,0.7,1,0.1
				c1.3-2.6,3.2-2.3,5.2-1.5c2.6,0.9,5.2,1.5,7.7,2.9c0.2,0.1,0.5,0.2,0.8,0.2C353.7,82.5,354,82.4,354.1,82.2z"/>
			<path class="st1" d="M338.8,115.4c0,0.9,0.6,1,1.1,1c0.5,0,1.1,0.1,1.6,0c2.8-0.4,5.7-0.6,8.6-0.4c1.2,0.1,2.3-0.3,3.3-1.1
				c2-1.5,3.9-3.1,5.9-4.5c2.4-1.6,4.1-4,6.3-6.8c-1.1-0.1-1.6,0.3-2.2,0.7c-2.4,1.8-4.8,3.8-7.3,5.3c-2.5,1.5-5.3,2.4-8.1,3.2
				c-2.7,0.8-5.4,1.3-8.2,1.6C339.4,114.6,338.8,114.7,338.8,115.4z"/>
			<path class="st1" d="M406.2,278c2.1,1.9,4.2,3.7,6.1,5.8c0.5,0.5,1,1,1.5,1.3c0.6,0.4,1,0,1.1-0.8c0-0.9-0.4-1.4-0.9-1.9
				c-1.3-1.3-2.6-2.7-4-3.8c-4.9-3.9-8.7-9.3-12.7-14.3c-0.8-1.1-1.3-2.5-2-3.8c-0.2-0.4-0.6-0.6-0.9-0.2c-0.2,0.2-0.3,0.6-0.2,0.9
				c0.3,1.7,0.9,3.3,1.9,4.6C399.1,270.1,402.3,274.4,406.2,278z"/>
			<path class="st1" d="M531.2,226c4,2.8,7.9,5.8,12.3,7.9c0.7,0.4,1.4,0.9,2.3,0.9c0.5,0,0.9-0.2,0.9-0.8c-0.1-0.6-0.4-0.8-0.7-1
				c-3.5-2-7-4.2-10.5-6.4c-1.9-1.2-3.8-2.4-5.7-3.5c-0.6-0.4-1.1-0.3-1.4,0.3c-0.5,1.1,0.4,0.8,0.8,1.1
				C529.8,225,530.5,225.5,531.2,226z"/>
			<path class="st1" d="M727,294.8c-0.1,0.1-0.2,0.2-0.3,0.3c0.1,0.2,0.3,0.7,0.5,0.4C727.5,295.3,727.2,295,727,294.8z"/>
			<path class="st1" d="M594.9,187.6c-1.7-0.4-3.2-1.5-4.7-2.4c-9.8-5.4-19.1-11.9-26.4-21.8c-0.6-0.8-1.3-1.3-2.1-1.3
				c-2.4,0-4.2-1.6-5.9-3.4c-0.9-0.9-1.8-2-2.9-2.3c-3.4-1.2-6.2-3.9-9.1-6.1c-3.2-2.4-6.2-2.1-9.4,0.1c-4,2.8-7.8,6.1-12,8.7
				c-2.8,1.7-5.5,3.6-8.2,5.5c-1.7,1.1-1.7,2.5-0.1,3.9c1,0.8,2,0.7,3.1,0.5c2.7-0.6,5.5-1.2,8.4-1c-4.9,5.3-11.7,6.4-16.7,11.6
				c0.6,1,1.2,0.8,1.6,0.6c3.3-1.9,6.8-2.5,10.4-2.5c0.3,0,0.5-0.1,0.8-0.2c2.3-0.6,4.5-1.6,6.9-0.5c0.4,0.2,1.1-0.1,1.6-0.2
				c1.9-0.6,3.3,0.2,4.4,2c1.1,1.7,2.2,3.4,3.5,4.9c2.1,2.7,4.4,5,6.2,8.1c0.9,1.6,2.2,3,4,3.6c0-0.4,0.1-0.7,0-0.8
				c-2.7-3.4-4.2-7.7-6-11.8c-0.3-0.6-0.6-1.1-0.5-1.8c0.2-2.6-0.7-4.9-1.2-7.3c-0.5-2.2-0.6-4.4-0.2-6.7c0.4-2.4,0.7-4.9,0.2-7.4
				c-0.2-1,0.1-1.9,0.4-2.8c0.8-2.3,1.2-2.5,2.9-0.9c4.1,4,8.2,8,12.5,11.8c4.6,4,9.1,8.1,14.3,10.9c2.7,1.5,5.2,3.2,7.6,5.5
				c2.2,2.1,4.7,3.6,7.6,3.8c0.9,0,1.7,0.5,2.5,0.9c1.9,1,3.8,2,5.8,2.4c1.2,0.3,2-0.2,2.3-1.6C596.5,188.2,595.7,187.8,594.9,187.6
				z"/>
			<path class="st1" d="M464.9,221.6c-3.8-1.3-7.2-3.8-10.7-6c-5-3.2-10.3-5.6-15.9-6.8c-6.9-1.5-11.9-6.7-16.6-12.5
				c-0.5-0.6-0.7-1.6-1.7-1.3c-0.9,0.3-0.9,1.3-1,2.1c-0.5,3.2-0.9,6.4-1.8,9.5c-0.3,1.1-0.6,2.3-0.9,3.4c-0.2,0.9-0.1,1.7,0.6,2.2
				c0.8,0.6,1.4-0.1,1.8-0.7c0.6-0.9,1.2-1.9,1.8-2.8c1.4-2.1,2.2-2.4,4.1-1c1.5,1.1,3,1.8,4.8,1.8c1,0,1.9,0.6,2.8,1.1
				c0.8,0.5,1.6,1.1,2.4,1.4c4.7,1.5,9.2,3.7,13.9,5.1c3.3,1,6.7,1.6,9.7,3.7c1.1,0.7,2.3,1.2,3.5,1.7c1.1,0.5,2.2,1,3.4,1.1
				c0.4,0,0.7-0.1,0.8-0.7C466.2,222.1,465.5,221.8,464.9,221.6z"/>
			<path class="st1" d="M479.2,201.7c-0.2-0.2-0.5-0.3-0.7-0.5c-2.4-1.6-4.7-3.5-7.3-4.8c-3.4-1.8-5.5-4.9-6.9-8.9
				c-0.2-0.7-0.6-1.3-0.8-2.1c-0.4-1.9-1.4-2.4-3-2.3c-2.7,0.1-4.8,2.3-7.4,2.4c-0.7,0-1.5,0.4-1.6,1.4c-0.1,1.1,0.6,1.8,1.3,2.2
				c1.8,1,3.5,2.1,5.5,2.7c2.3,0.7,4.6,1.8,6.5,3.7c2.8,2.7,6,4.6,9.1,6.8c1.4,1,2.9,1.7,3.9,1.8c1.3,0.1,1.9,0,2.1-0.9
				C480.1,202.5,479.6,202.1,479.2,201.7z"/>
			<path class="st1" d="M516.4,147.5c0.2-0.1,0.5-0.3,0.7-0.5c4.1-1.9,8.2-3.8,12.7-3.3c1.2,0.1,2.5,0.1,3.7,0.4
				c0.9,0.2,1.8,0.3,2.7,0.4c0.5,0,0.9,0,1.2-0.6c0.3-0.8-0.1-1.2-0.5-1.6c-0.9-0.9-1.7-1.8-2.8-2.6c-3.3-2.3-6.4-4.8-8-9.2
				c-0.4-1.2-1.3-1.3-2.2-1.4c0.6,6-1.9,10-5.7,13.3c-1,0.9-2,1.8-2.9,2.8c-0.5,0.5-1,1.1-0.5,1.9
				C515.2,147.9,515.8,147.8,516.4,147.5z"/>
			<path class="st1" d="M523.9,129L523.9,129L523.9,129L523.9,129C523.9,129,523.9,129,523.9,129C523.9,129,523.9,129,523.9,129
				L523.9,129z"/>
			<path class="st1" d="M576.7,194.1c-2.7-1.3-5.2-3-7.3-5.4c-4.2-4.8-9.3-7.5-14.9-8.9c-2.2-0.6-4.7,0.3-6.7-1.9
				c-0.3-0.4-0.8-0.7-1.2-0.2c-0.5,0.6-0.1,1.3,0.2,1.7c1.4,2.2,3.4,2.8,5.5,2.8c3.5-0.1,6.4,1.8,9.1,4.1c2.7,2.2,5,4.9,8,6.4
				c1.9,1,3.8,1.7,5.7,2.7c5,2.6,10.1,4.9,15.3,6.8c1,0.3,2.1,0.7,3.8,0.1c-2.4-1.3-4.2-2.7-6.2-3.4
				C584.2,197.6,580.4,195.9,576.7,194.1z"/>
			<path class="st1" d="M448.7,165.8c0-0.8-0.4-1.2-0.8-1.6c-1.4-1.3-3.1-1.8-4.5-2.8c-3.9-2.6-7.4-6-10.5-9.9
				c-1.4-1.8-2.9-3.5-4.6-4.9c-0.5-0.4-1.2-0.9-1.7-0.2c-0.6,0.8,0,1.4,0.5,1.9c1.4,1.7,2.7,3.5,4.2,4.9c2.6,2.5,5,5.2,6.8,8.6
				c1.2,2.2,2.1,4.5,3.6,6.4c0.3,0.5,0.5,1.3,1.1,1.2c2-0.3,3.9-0.7,5.4-2.4C448.3,166.8,448.5,166.2,448.7,165.8z"/>
		</g>
		<path class="st1" d="M375.9,372.2c1.5,0,2.9-0.3,4.3-0.6c3.5-0.7,7-1.3,10.6-1.6c6.8-0.8,13.2-1.8,19.7-3.4
			c11.2-2.7,23-5.5,33.3-10.1c2.3-1,4.3-2.4,6.7-3.3c2-0.6,3.9-1.2,5.9-1.8c1.2-0.7,2.4-1.4,3.6-2.1c1.8-1,3.7-1.6,5.7-2.2
			c1.6-0.5,3.4-1.5,5.2-1.7c1.2-0.1,2.2,0.3,3.2,0.6c1.5,0.5,3.1,0.4,4.6,0.9c1.6,0.5,2.8,1.5,4.6,1.8c2.2,0.4,4.6,0.6,6.9,0.7
			c2.7,0,5.5,0.5,8.1,1.3c5.1,1.7,10.4,2.8,15.6,4.2c5.7,1.6,11.3,3,17.3,3.8c8.3,1,16.9,1.4,25.3,1.8c7.1,0.3,14.2,0.7,21.3,1.7
			c3.3,0.5,6.6,1,10,1.3c2.3,0.2,4.5,0.9,6.8,1c3.4,0.1,6.7,0.2,10.1,0.4c7.1,0.4,14.3,0.3,21.4,0.6c4.6,0.2,9.3,0.1,13.9,0.1
			c4,0,7.9,0.4,11.9,0.5c4.5,0.2,9.1,0,13.6,0c12.8,0,25.6,0,38.4,0c-4.2,0-8.4,0.2-12.6,0.4c-7.6,0.4-15.1,0.3-22.7,0.8
			c-4.5,0.3-9,0.4-13.5,0.9c-3.4,0.3-6.7,0.6-10.2,0.6c-8.7,0-17.5,0.4-26.1-0.3c-5.4-0.4-11-0.5-16.5-0.3
			c-4.7,0.1-9.1,0.9-13.8,0.5c-3.5-0.3-7-0.4-10.5-0.8c-4.8-0.6-9.6-1.4-14.5-1.7c-4.4-0.3-8.8,0.2-13.1-0.2
			c-6.2-0.6-12.4-0.5-18.6-0.4c-4.9,0-9.8-0.3-14.4-1.7c-2-0.6-3.9-1.3-6-1.7c-2.2-0.4-4.4-0.5-6.6-0.9c-4.1-0.7-8.2-0.4-12.3-1
			c-1.8-0.3-5.5-1-6.8,0.2c0.3,1.2,1.6,1.7,2.8,2.3c1.8,0.8,3.6,1.9,5,3.2c1.4,1.4,2.8,2.8,4.2,4.2c1.5,1.4,3.4,3.1,4.4,4.8
			c-6.6-2.3-13.7-4.4-19.7-7.9c-1.8-1.1-3.5-2.4-5.2-3.5c-1.4-0.9-3-2.2-4.8-2.4c-4.1-0.5-8.1,0.5-12,1.4c-3.7,0.8-7.5,1.2-11.3,1.7
			c-6.6,1-12.9,2.6-19.6,3.4c-9,1-18.1,2.5-26.9,4c-6,1-11.8,1.5-17.9,2.1c-3.2,0.3-6.3,0.8-9.6,0.8c-3.2,0-6.4,0-9.5,0
			c3,0,5.6,0,8.5-0.8C374.9,373.3,378,372.8,375.9,372.2z"/>
		<path class="st1" d="M342,365c-7.1,0.5-14.4-2.4-20.9-4.5c-4-1.3-8-2.7-12-4.1c-2.7-1-5.3-2.1-8.1-2.7c-4.4-0.9-9.1-1.1-13.6-0.7
			c-3.1,0.3-6.1,1.1-9.3,1.2c-2.4,0-4.8-0.1-7.2,0c-1.5,0-3-0.2-4.5,0c-0.9,0.1-1.6,0.7-2.4,0.5c-0.6-0.2-1.1-2.6-2.4-3
			c-1.7-0.5-4.2-0.1-6-0.1c-2.7,0-5.3,0.2-8,0.7c-4.1,0.7-8.3,1-12.4,1.9c-2.7,0.5-5.3,1.3-8,1.3c-1.5,0-2.9-0.1-4.5,0.1
			c-14.3,1.3-28.5,3.2-42.7,4.5c-8.1,0.7-16.3,0.8-24.3,2c-7.3,1.1-14.5,2.3-21.9,2.2c-8.1-0.1-16.2,0.7-24.3,1.1
			c-7,0.4-14,0.1-21,0.1c-8.3,0-16.5,0.1-24.8-0.5c-2.9-0.2-5.7-0.4-8.6-0.7c-1.5-0.1-5.2,0.4-6.4-0.7c16.3,4,33.5,5.1,50.3,5
			c7.9-0.1,15.7,0.7,23.5,0.7c6.9,0,13.7-0.7,20.6-0.6c3.5,0,6.8-0.3,10.3-0.5c3.1-0.2,6.3,0,9.4-0.1c4.9-0.1,10.3-0.4,15.1-1
			c6.1-0.8,12.3-0.9,18.4-2.2c6.2-1.3,12.8-1.9,19.2-1.9c4.8-0.1,9.5,0.2,14.2-0.3c4.7-0.5,9.3-1.5,14-2c2.9-0.4,5.9-0.1,8.9-0.1
			c4.6,0,9.4-0.4,14,0c3.3,0.3,6.8,1.9,10,2.9c1.6,0.5,3.3,0.9,4.9,1.4c1.6,0.5,2.6,1.2,4,1.9c5.4,2.7,12.3,2.4,18.1,4.1
			c4.1,1.2,9.2,2.9,13.5,1.7c-1-1.8-4-1.9-5.7-2.4c-3.9-1.1-7.5-2.4-11.5-3.2c-3.5-0.7-12.8-1.2-13.4-6.2c1.2-0.5,4.3-0.1,5.2-0.1
			c3.7,0,7.4-0.1,11,0.6c4,0.8,7.9,2.2,12,2.8c4.1,0.5,8.1,1.4,12.2,1.9c3.5,0.4,7,0.3,10.5,0.8c12,1.6,24.8,2.8,36.9,0.9
			c-3.6,0.1-7.4,0.2-11,0.1c-3.2-0.2-6.4-1.2-9.6-1.3c-2.9-0.1-5.5-0.7-8.4-1.1C344.2,365,343.1,365.2,342,365
			C341.1,364.8,340.3,364.3,342,365z"/>
	</g>
</g>
</svg>
