<?xml version="1.0" encoding="utf-8"?>
<!-- Generator: Adobe Illustrator 28.1.0, SVG Export Plug-In . SVG Version: 6.00 Build 0)  -->
<svg version="1.1" id="Layer_1" xmlns="http://www.w3.org/2000/svg" xmlns:xlink="http://www.w3.org/1999/xlink" x="0px" y="0px"
	 viewBox="0 0 300 300" style="enable-background:new 0 0 300 300;" xml:space="preserve">
<style type="text/css">
	.st0{fill:#00B21E;}
	.st1{fill:#FFFFFF;}
</style>
<g>
	<g>
		<circle class="st0" cx="150" cy="150" r="145.7"/>
	</g>
	<g>
		<g>
			<path class="st1" d="M145.7,193.3v25.1c0,1.2-1,2.2-2.2,2.2H128c-12.6,0-22.4-3.1-29.5-9.3c-7.1-6.2-10.6-16.2-10.6-30.2v-43
				c0-1.2-1-2.2-2.2-2.2h-9.4c-1.2,0-2.2-1-2.2-2.2v-24.5c0-1.2,1-2.2,2.2-2.2h9.4c1.2,0,2.2-1,2.2-2.2V81.6c0-1.2,1-2.2,2.2-2.2
				h30.4c1.2,0,2.2,1,2.2,2.2v23.3c0,1.2,1,2.2,2.2,2.2h18.4c1.2,0,2.2,1,2.2,2.2v24.5c0,1.2-1,2.2-2.2,2.2H125
				c-1.2,0-2.2,1-2.2,2.2v43.4c0,3.4,0.8,5.8,2.4,7.3c1.6,1.5,4.3,2.2,8.1,2.2h10.2C144.8,191.1,145.7,192.1,145.7,193.3z"/>
			<path class="st1" d="M205.6,111.2c4.7-2.8,9.8-4.5,15.3-5.1c2.7-0.3,5,1.7,5,4.4v27.6c0,2.5-2,4.5-4.5,4.5h-5.1
				c-8.7,0-15.2,1.9-19.5,5.6c-4.4,3.7-6.5,10.3-6.5,19.6v48.2c0,2.5-2,4.5-4.5,4.5H160c-2.5,0-4.5-2-4.5-4.5V111.6
				c0-2.5,2-4.5,4.5-4.5h25.8c2.5,0,4.5,2,4.5,4.5v2.2c0,3.9,4.7,5.9,7.5,3.3C200.2,114.8,202.8,112.9,205.6,111.2z"/>
		</g>
	</g>
</g>
</svg>
