<?xml version="1.0" encoding="utf-8"?>
<!-- Generator: Adobe Illustrator 28.1.0, SVG Export Plug-In . SVG Version: 6.00 Build 0)  -->
<svg version="1.1" id="Layer_1" xmlns="http://www.w3.org/2000/svg" xmlns:xlink="http://www.w3.org/1999/xlink" x="0px" y="0px"
	 viewBox="0 0 287.1 145.7" style="enable-background:new 0 0 287.1 145.7;" xml:space="preserve">
<style type="text/css">
	.st0{fill:#013912;}
	.st1{fill:#404146;}
	.st2{fill:#00B21E;}
	.st3{fill:#FFFFFF;}
</style>
<g>
	<g>
		<path class="st0" d="M199,274.7v7.9c0,0.4-0.3,0.7-0.7,0.7h-4.9c-4,0-7.1-1-9.3-2.9c-2.2-1.9-3.3-5.1-3.3-9.5v-13.6
			c0-0.4-0.3-0.7-0.7-0.7h-3c-0.4,0-0.7-0.3-0.7-0.7v-7.8c0-0.4,0.3-0.7,0.7-0.7h3c0.4,0,0.7-0.3,0.7-0.7v-7.4
			c0-0.4,0.3-0.7,0.7-0.7h9.6c0.4,0,0.7,0.3,0.7,0.7v7.4c0,0.4,0.3,0.7,0.7,0.7h5.8c0.4,0,0.7,0.3,0.7,0.7v7.8
			c0,0.4-0.3,0.7-0.7,0.7h-5.8c-0.4,0-0.7,0.3-0.7,0.7V271c0,1.1,0.3,1.8,0.8,2.3s1.4,0.7,2.6,0.7h3.2
			C198.7,274,199,274.3,199,274.7z"/>
		<path class="st1" d="M209,281.6c-2.8-1.5-5-3.6-6.6-6.4c-1.6-2.8-2.4-6-2.4-9.8c0-3.7,0.8-6.9,2.4-9.7s3.9-5,6.7-6.5
			c2.8-1.5,6-2.2,9.5-2.2c3.5,0,6.7,0.8,9.5,2.2c2.8,1.5,5.1,3.6,6.7,6.5s2.4,6.1,2.4,9.7c0,3.7-0.8,6.9-2.5,9.7
			c-1.6,2.8-3.9,5-6.8,6.5s-6,2.2-9.6,2.2C215,283.9,211.8,283.1,209,281.6z M223.8,272c1.5-1.5,2.2-3.8,2.2-6.6s-0.7-5.1-2.1-6.6
			c-1.4-1.5-3.2-2.3-5.3-2.3c-2.1,0-3.9,0.8-5.3,2.3c-1.4,1.5-2.1,3.7-2.1,6.6c0,2.9,0.7,5.1,2.1,6.6c1.4,1.5,3.1,2.3,5.2,2.3
			C220.6,274.3,222.4,273.6,223.8,272z"/>
		<path class="st1" d="M275.5,248.2v34.5c0,0.4-0.3,0.7-0.7,0.7h-9.6c-0.4,0-0.7-0.3-0.7-0.7v-2.3c0-0.6-0.8-0.9-1.2-0.5
			c-0.9,0.9-2.1,1.7-3.3,2.4c-1.9,1-4,1.5-6.3,1.5c-2.7,0-5.2-0.6-7.3-1.8c-2.1-1.2-3.7-3-4.9-5.3s-1.7-5-1.7-8.2v-20.3
			c0-0.4,0.3-0.7,0.7-0.7h9.5c0.4,0,0.7,0.3,0.7,0.7V267c0,2.4,0.6,4.3,1.9,5.6c1.2,1.3,2.9,2,5,2c2.1,0,3.8-0.7,5.1-2
			c1.2-1.3,1.9-3.2,1.9-5.6v-18.8c0-0.4,0.3-0.7,0.7-0.7h9.6C275.2,247.5,275.5,247.8,275.5,248.2z"/>
		<path class="st0" d="M296.2,248.8c1.7-1,3.6-1.6,5.7-1.7c0.4,0,0.7,0.3,0.7,0.7V258c0,0.4-0.3,0.7-0.7,0.7h-2.3
			c-2.7,0-4.8,0.6-6.2,1.8c-1.4,1.2-2.1,3.2-2.1,6.2v16c0,0.4-0.3,0.7-0.7,0.7h-9.6c-0.4,0-0.7-0.3-0.7-0.7v-34.5
			c0-0.4,0.3-0.7,0.7-0.7h9.6c0.4,0,0.7,0.3,0.7,0.7v3.2c0,0.6,0.8,0.9,1.2,0.4C293.6,250.6,294.8,249.6,296.2,248.8z"/>
	</g>
	<g>
		<circle class="st2" cx="313.4" cy="253" r="5.6"/>
	</g>
</g>
<rect x="-431" y="-69" style="fill:none;" width="233" height="209"/>
<text transform="matrix(1 0 0 1 -431 -60.48)"><tspan x="0" y="0" style="font-family:'MyriadPro-Regular'; font-size:12px;">Lorem ipsum dolor sit amet, consectetuer </tspan><tspan x="0" y="14.4" style="font-family:'MyriadPro-Regular'; font-size:12px;">adipiscing elit, sed diam nonummy nibh </tspan><tspan x="0" y="28.8" style="font-family:'MyriadPro-Regular'; font-size:12px;">euismod tincidunt ut laoreet dolore magna </tspan><tspan x="0" y="43.2" style="font-family:'MyriadPro-Regular'; font-size:12px;">aliquam erat volutpat. Ut wisi enim ad minim </tspan><tspan x="0" y="57.6" style="font-family:'MyriadPro-Regular'; font-size:12px;">veniam, quis nostrud exerci tation ullamcorper </tspan><tspan x="0" y="72" style="font-family:'MyriadPro-Regular'; font-size:12px;">suscipit lobortis nisl ut aliquip ex ea commodo </tspan><tspan x="0" y="86.4" style="font-family:'MyriadPro-Regular'; font-size:12px;">consequat. Duis autem vel eum iriure dolor in </tspan><tspan x="0" y="100.8" style="font-family:'MyriadPro-Regular'; font-size:12px;">hendrerit in vulputate velit esse molestie </tspan><tspan x="0" y="115.2" style="font-family:'MyriadPro-Regular'; font-size:12px;">consequat, vel illum dolore eu feugiat nulla </tspan><tspan x="0" y="129.6" style="font-family:'MyriadPro-Regular'; font-size:12px;">facilisis at vero eros et accumsan et iusto odio </tspan><tspan x="0" y="144" style="font-family:'MyriadPro-Regular'; font-size:12px;">dignissim qui blandit praesent luptatum zzril </tspan><tspan x="0" y="158.4" style="font-family:'MyriadPro-Regular'; font-size:12px;">delenit augue duis dolore te feugait nulla </tspan><tspan x="0" y="172.8" style="font-family:'MyriadPro-Regular'; font-size:12px;">facilisi.</tspan><tspan x="0" y="187.2" style="font-family:'MyriadPro-Regular'; font-size:12px;">Lorem ipsum dolor sit amet, cons ectetuer </tspan></text>
<g>
	<circle class="st2" cx="53.9" cy="74.8" r="52.6"/>
</g>
<g>
	<g>
		<path class="st3" d="M52.3,90.5v9.1c0,0.4-0.4,0.8-0.8,0.8h-5.6c-4.5,0-8.1-1.1-10.6-3.3c-2.5-2.2-3.8-5.9-3.8-10.9V70.6
			c0-0.4-0.4-0.8-0.8-0.8h-3.4c-0.4,0-0.8-0.4-0.8-0.8v-8.8c0-0.4,0.4-0.8,0.8-0.8h3.4c0.4,0,0.8-0.4,0.8-0.8v-8.4
			c0-0.4,0.4-0.8,0.8-0.8h11c0.4,0,0.8,0.4,0.8,0.8v8.4c0,0.4,0.4,0.8,0.8,0.8h6.6c0.4,0,0.8,0.4,0.8,0.8V69c0,0.4-0.4,0.8-0.8,0.8
			h-6.6c-0.4,0-0.8,0.4-0.8,0.8v15.7c0,1.2,0.3,2.1,0.9,2.6c0.6,0.5,1.6,0.8,2.9,0.8h3.7C52,89.7,52.3,90,52.3,90.5z"/>
		<path class="st3" d="M73.9,60.9c1.7-1,3.5-1.6,5.5-1.8c1-0.1,1.8,0.6,1.8,1.6v10c0,0.9-0.7,1.6-1.6,1.6h-1.8c-3.1,0-5.5,0.7-7,2
			c-1.6,1.3-2.4,3.7-2.4,7.1v17.4c0,0.9-0.7,1.6-1.6,1.6h-9.3c-0.9,0-1.6-0.7-1.6-1.6V61c0-0.9,0.7-1.6,1.6-1.6h9.3
			c0.9,0,1.6,0.7,1.6,1.6v0.8c0,1.4,1.7,2.1,2.7,1.2C72,62.1,72.9,61.5,73.9,60.9z"/>
	</g>
</g>
<path class="st1" d="M123.9,72.2c-0.5,0-1,0.4-1,1v12.6c0,0.9,0.2,1.6,0.7,2.1c0.5,0.4,1.2,0.6,2.3,0.6h2.3c0.5,0,1,0.4,1,1v4
	c0,0.5-0.4,1-1,1h-3.5c-6,0-9-2.9-9-8.7V73.2c0-0.5-0.4-1-1-1h-1.4c-0.5,0-1-0.4-1-1v-3.8c0-0.5,0.4-1,1-1h1.4c0.5,0,1-0.4,1-1v-5
	c0-0.5,0.4-1,1-1h5.2c0.5,0,1,0.4,1,1v5c0,0.5,0.4,1,1,1h4.3c0.5,0,1,0.4,1,1v3.8c0,0.5-0.4,1-1,1H123.9z"/>
<path class="st1" d="M135.6,93.1c-2.2-1.2-3.9-2.9-5.1-5.1c-1.2-2.2-1.8-4.7-1.8-7.6c0-2.9,0.6-5.4,1.9-7.6c1.3-2.2,3-3.9,5.2-5.1
	c2.2-1.2,4.6-1.8,7.3-1.8c2.7,0,5.2,0.6,7.3,1.8c2.2,1.2,3.9,2.9,5.2,5.1c1.3,2.2,1.9,4.7,1.9,7.6c0,2.9-0.7,5.4-2,7.6
	c-1.3,2.2-3.1,3.9-5.3,5.1c-2.2,1.2-4.7,1.8-7.4,1.8C140.2,94.9,137.8,94.3,135.6,93.1z M146.6,87.8c1.1-0.6,2-1.6,2.7-2.8
	c0.7-1.2,1-2.8,1-4.6c0-2.7-0.7-4.7-2.1-6.2c-1.4-1.4-3.1-2.2-5.1-2.2c-2,0-3.7,0.7-5.1,2.2c-1.4,1.4-2.1,3.5-2.1,6.2
	c0,2.7,0.7,4.7,2,6.2c1.3,1.4,3,2.2,5,2.2C144.2,88.8,145.4,88.4,146.6,87.8z"/>
<path class="st1" d="M185.5,67.4v26.1c0,0.5-0.4,1-1,1h-5.2c-0.5,0-1-0.4-1-1v-0.1c0-0.8-0.9-1.3-1.6-0.8c-0.6,0.5-1.3,0.9-2,1.2
	c-1.5,0.7-3.1,1-4.8,1c-2.2,0-4.1-0.5-5.8-1.4c-1.7-0.9-3-2.3-4-4.1c-1-1.8-1.4-4-1.4-6.5V67.4c0-0.5,0.4-1,1-1h5.1c0.5,0,1,0.4,1,1
	v14.5c0,2.2,0.6,3.9,1.7,5.1c1.1,1.2,2.6,1.8,4.6,1.8c2,0,3.5-0.6,4.6-1.8c1.1-1.2,1.7-2.9,1.7-5.1V67.4c0-0.5,0.4-1,1-1h5.2
	C185.1,66.4,185.5,66.9,185.5,67.4z"/>
<path class="st1" d="M199.4,67.3c1.2-0.7,2.5-1.1,3.9-1.2c0.6-0.1,1.1,0.4,1.1,1v5.4c0,0.5-0.4,1-1,1h-0.9c-2.2,0-3.9,0.5-5,1.6
	c-1.1,1-1.7,2.9-1.7,5.5v13c0,0.5-0.4,1-1,1h-5.1c-0.5,0-1-0.4-1-1V67.4c0-0.5,0.4-1,1-1h5.1c0.5,0,1,0.4,1,1V68
	c0,0.9,1,1.3,1.7,0.7C198,68.1,198.7,67.7,199.4,67.3z"/>
<path class="st2" d="M205.9,61.9c-0.8-0.8-1.2-1.8-1.2-3c0-1.2,0.4-2.2,1.2-3c0.8-0.8,1.9-1.2,3.1-1.2c1.2,0,2.3,0.4,3.1,1.2
	c0.8,0.8,1.2,1.8,1.2,3c0,1.2-0.4,2.2-1.2,3c-0.8,0.8-1.9,1.2-3.1,1.2C207.7,63.1,206.7,62.7,205.9,61.9z"/>
<path class="st1" d="M212.5,67.4v26.1c0,0.5-0.4,1-1,1h-5.1c-0.5,0-1-0.4-1-1V67.4c0-0.5,0.4-1,1-1h5.1
	C212,66.4,212.5,66.9,212.5,67.4z"/>
<path class="st1" d="M220.2,93.7c-1.8-0.8-3.3-2-4.3-3.4c-0.8-1.1-1.3-2.3-1.6-3.5c-0.1-0.6,0.4-1.2,1-1.2h5.2
	c0.4,0,0.8,0.3,0.9,0.7c0.2,0.8,0.7,1.5,1.5,2c0.9,0.7,2.1,1.1,3.5,1.1c1.4,0,2.4-0.3,3.2-0.8c0.8-0.5,1.1-1.2,1.1-2.1
	c0-0.9-0.5-1.6-1.4-2.1c-0.9-0.5-2.4-1-4.4-1.5c-2.1-0.5-3.8-1-5.1-1.6c-1.3-0.5-2.5-1.4-3.4-2.5c-1-1.1-1.4-2.6-1.4-4.5
	c0-1.6,0.4-3,1.3-4.3c0.9-1.3,2.2-2.3,3.9-3c1.7-0.7,3.6-1.1,5.9-1.1c3.3,0,6,0.8,8,2.5c1.7,1.4,2.8,3.3,3.2,5.6
	c0.1,0.6-0.4,1.2-1,1.2h-4.8c-0.4,0-0.8-0.3-1-0.7c-0.2-0.8-0.6-1.4-1.3-1.9c-0.8-0.7-1.9-1-3.3-1c-1.3,0-2.3,0.2-3,0.7
	c-0.7,0.5-1,1.1-1,2c0,0.9,0.5,1.7,1.4,2.2c0.9,0.5,2.4,1,4.4,1.5c2,0.5,3.7,1,5,1.6c1.3,0.5,2.5,1.4,3.4,2.5c1,1.1,1.5,2.6,1.5,4.5
	c0,1.6-0.4,3.1-1.3,4.4c-0.9,1.3-2.2,2.3-3.9,3c-1.7,0.7-3.6,1.1-5.9,1.1C224.1,94.9,222.1,94.5,220.2,93.7z"/>
<path class="st1" d="M282.7,69.2c2.1,2.1,3.2,5.1,3.2,8.8v15.5c0,0.5-0.4,1-1,1h-5.1c-0.5,0-1-0.4-1-1V79c0-2.2-0.6-3.9-1.7-5
	c-1.1-1.2-2.6-1.7-4.6-1.7c-1.9,0-3.5,0.6-4.6,1.7c-1.1,1.2-1.7,2.8-1.7,5v14.5c0,0.5-0.4,1-1,1h-5.1c-0.5,0-1-0.4-1-1V79
	c0-2.2-0.6-3.9-1.7-5c-1.1-1.2-2.6-1.7-4.6-1.7c-2,0-3.5,0.6-4.6,1.7c-1.1,1.2-1.7,2.8-1.7,5v14.5c0,0.5-0.4,1-1,1h-5.1
	c-0.5,0-1-0.4-1-1V67.4c0-0.5,0.4-1,1-1h5.1c0.5,0,1,0.4,1,1l0,0c0,0.8,0.9,1.3,1.6,0.8c0.6-0.5,1.2-0.9,1.9-1.2c1.4-0.7,3-1,4.7-1
	c2.2,0,4.2,0.5,5.9,1.4c1.3,0.7,2.4,1.6,3.2,2.7c0.4,0.5,1.2,0.5,1.6,0c0.8-1.1,1.9-2,3.2-2.7c1.7-1,3.6-1.5,5.7-1.5
	C277.8,66,280.6,67.1,282.7,69.2z"/>
</svg>
